<?xml version="1.0" encoding="UTF-8"?>
<svg width="512" height="512" viewBox="0 0 512 512" fill="none" xmlns="http://www.w3.org/2000/svg" role="img" aria-label="ERA chain icon">
  <title>ERA chain icon</title>
  <path d="
    M204.1,473.29 L204.98,472.41 L206.74,472.41 L207.62,473.29 L210.25,473.29 L211.13,474.17 L213.77,474.17 L214.65,475.05 L218.17,475.05 L219.05,475.93 L222.57,475.93 L223.45,476.81 L227.85,476.81 L228.73,477.69 L234.89,477.69 L235.77,478.57 L248.08,478.57 L248.96,479.45 L254.24,479.45 L255.12,480.33 L255.12,489.13 L254.24,490.01 L253.36,489.13 L246.32,489.13 L245.44,488.25 L241.04,488.25 L240.16,487.37 L236.65,487.37 L235.77,486.49 L233.13,486.49 L229.61,484.73 L226.97,484.73 L221.69,482.09 L219.93,482.09 L215.53,479.45 L213.77,479.45 L208.49,476.81 Z
    M327.26,456.58 L326.38,458.34 L327.26,460.98 L329.02,459.22 L329.02,458.34 Z
    M212.01,456.58 L214.65,460.1 L215.53,458.34 Z
    M365.97,453.06 L365.09,454.82 L364.21,454.82 L359.81,458.34 L357.17,459.22 L355.41,460.98 L351.01,462.74 L349.25,464.49 L329.02,474.17 L327.26,474.17 L324.62,475.93 L322.86,475.93 L320.22,477.69 L315.82,478.57 L313.18,480.33 L311.42,480.33 L307.9,482.09 L305.26,482.09 L304.38,482.97 L299.11,483.85 L298.23,484.73 L295.59,484.73 L294.71,485.61 L286.79,486.49 L285.91,487.37 L276.23,488.25 L275.35,489.13 L265.68,489.13 L264.8,490.01 L256.88,490.01 L256,489.13 L256,480.33 L256.88,479.45 L261.28,479.45 L262.16,478.57 L274.47,478.57 L275.35,477.69 L283.27,477.69 L284.15,476.81 L290.31,476.81 L291.19,475.93 L294.71,475.93 L295.59,475.05 L303.51,474.17 L304.38,473.29 L310.54,472.41 L314.06,470.65 L316.7,470.65 L317.58,469.77 L327.26,467.13 L329.9,465.37 L334.3,464.49 L336.93,462.74 L338.69,462.74 L346.61,458.34 L348.37,458.34 L357.17,453.94 L358.93,452.18 L362.45,450.42 L364.21,450.42 Z
    M190.02,447.78 L188.26,451.3 L189.14,453.06 Z
    M219.93,446.9 L220.81,448.66 L219.93,450.42 L221.69,451.3 L221.69,449.54 L219.93,447.78 Z
    M236.65,445.14 L236.65,443.38 L233.13,444.26 Z
    M226.09,443.38 L226.97,445.14 L228.73,445.14 L229.61,444.26 Z
    M327.26,442.5 L324.62,445.14 L322.86,444.26 L319.34,446.02 L314.06,445.14 L318.46,446.9 L319.34,447.78 L318.46,448.66 L319.34,450.42 L320.22,450.42 L321.98,452.18 L323.74,451.3 L324.62,452.18 L326.38,448.66 L325.5,445.14 L327.26,443.38 Z
    M304.38,441.62 L307.9,442.5 L310.54,444.26 L312.3,444.26 L308.78,443.38 L306.14,441.62 Z
    M290.31,436.34 L291.19,438.98 L292.95,438.98 L293.83,437.22 L296.47,438.98 L298.23,438.98 L296.47,438.1 L295.59,436.34 L292.95,434.58 L292.95,433.7 L292.07,433.7 L292.07,434.58 Z
    M158.35,431.95 L164.51,441.62 L174.19,453.06 L174.19,453.94 L184.74,464.49 L183.86,465.37 L180.34,464.49 L177.7,462.74 L173.31,461.86 L170.67,460.1 L168.91,460.1 L164.51,457.46 L162.75,457.46 L159.23,455.7 L157.47,453.94 L149.55,450.42 L147.79,448.66 L153.07,441.62 L153.95,438.98 L155.71,437.22 Z
    M331.66,431.95 L329.9,433.7 L328.14,433.7 L329.9,436.34 L329.9,438.1 L330.78,437.22 L332.54,438.1 L334.3,435.46 L334.3,433.7 L333.42,433.7 Z
    M190.9,431.95 L190.9,433.7 L191.78,434.58 L191.78,437.22 L190.9,438.1 L191.78,438.98 L190.9,444.26 L191.78,442.5 L191.78,439.86 L193.54,438.98 L202.34,446.9 L203.22,446.9 L208.49,453.06 L209.37,453.06 L201.46,444.26 L200.58,444.26 L197.06,440.74 L196.18,440.74 L191.78,436.34 L191.78,433.7 Z
    M321.1,431.07 L323.74,431.95 L322.86,431.07 Z
    M209.37,425.79 L209.37,426.67 L214.65,432.82 L214.65,435.46 L216.41,437.22 L216.41,438.98 L218.17,442.5 L217.29,438.1 L218.17,437.22 L219.93,438.1 Z
    M291.19,418.75 L291.19,420.51 L292.95,422.27 L292.95,424.03 L292.95,421.39 L293.83,420.51 L295.59,420.51 L298.23,422.27 L299.99,422.27 L302.63,424.03 L307.02,424.91 L311.42,427.55 L313.18,427.55 L319.34,430.19 L314.06,427.55 L312.3,427.55 L310.54,425.79 L304.38,424.03 L299.99,421.39 L295.59,420.51 L293.83,419.63 L292.95,417.87 Z
    M182.1,415.23 L180.34,416.99 L183.86,418.75 L184.74,420.51 L179.46,425.79 L177.7,425.79 L177.7,426.67 L178.58,427.55 L184.74,421.39 L186.5,421.39 L189.14,425.79 L189.14,428.43 L190.02,430.19 L190.02,427.55 L188.26,424.91 L188.26,422.27 L191.78,420.51 L187.38,420.51 L186.5,419.63 L185.62,420.51 L183.86,417.87 L183.86,416.11 Z
    M210.25,413.47 L202.34,416.99 L200.58,415.23 L201.46,416.99 L200.58,417.87 L196.18,418.75 L197.94,418.75 L198.82,417.87 L202.34,417.87 L204.1,419.63 L203.22,416.99 Z
    M215.53,410.83 L212.01,412.59 L213.77,412.59 L215.53,411.71 Z
    M369.48,407.31 L369.48,408.19 L371.24,409.95 L372.12,409.07 L373.88,410.83 L374.76,410.83 L377.4,414.35 L379.16,414.35 L380.04,413.47 L377.4,413.47 L372.12,408.19 L371.24,406.43 Z
    M247.2,406.43 L247.2,409.07 L248.96,409.95 L248.96,415.23 L249.84,416.99 L251.6,418.75 L255.12,420.51 L255.12,421.39 L253.36,423.15 L250.72,423.15 L251.6,424.03 L254.24,424.03 L255.12,424.91 L255.12,426.67 L254.24,427.55 L256,428.43 L256.88,427.55 L256.88,424.91 L257.76,424.03 L260.4,424.03 L260.4,423.15 L257.76,423.15 L256.88,422.27 L256.88,420.51 L262.16,416.11 L262.16,409.95 L263.92,409.07 L263.92,406.43 L263.04,406.43 L260.4,409.07 L261.28,414.35 L258.64,417.87 L256.88,417.87 L256,416.99 L256,413.47 L257.76,411.71 L256.88,409.95 L255.12,409.07 L255.12,409.95 L253.36,410.83 L253.36,411.71 L255.12,412.59 L255.12,416.99 L254.24,417.87 L252.48,417.87 L250.72,416.11 L250.72,409.07 L248.08,406.43 Z
    M190.02,406.43 L189.14,409.07 L192.66,409.07 L191.78,407.31 Z
    M363.33,448.66 L361.57,450.42 L353.65,453.94 L351.89,455.7 L348.37,457.46 L346.61,457.46 L336.93,462.74 L332.54,463.62 L329.9,465.37 L328.14,465.37 L327.26,466.25 L325.5,466.25 L319.34,468.89 L313.18,469.77 L309.66,471.53 L307.02,471.53 L306.14,472.41 L303.51,472.41 L302.63,473.29 L299.11,473.29 L295.59,475.05 L285.91,475.93 L285.03,476.81 L277.11,476.81 L276.23,477.69 L268.32,477.69 L267.44,478.57 L256.88,478.57 L256,477.69 L256,438.1 L259.52,436.34 L262.16,436.34 L270.96,431.07 L275.35,424.03 L275.35,422.27 L276.23,421.39 L276.23,416.99 L277.11,416.11 L277.11,414.35 L276.23,413.47 L277.99,411.71 L281.51,411.71 L282.39,410.83 L285.91,410.83 L286.79,409.95 L292.95,409.07 L296.47,407.31 L299.11,407.31 L299.99,406.43 L307.02,404.67 L309.66,402.91 L311.42,402.91 L314.94,401.15 L329.9,401.15 L330.78,400.27 L333.42,400.27 L336.93,404.67 L338.69,409.07 L340.45,410.83 L341.33,413.47 L343.09,415.23 L343.97,417.87 L345.73,419.63 L346.61,422.27 L348.37,424.03 L349.25,426.67 L351.01,428.43 L351.89,431.07 L353.65,432.82 L359.81,444.26 Z
    M181.22,394.12 L182.98,394.12 L188.26,396.76 L190.02,398.52 L193.54,400.27 L195.3,400.27 L199.7,402.91 L201.46,402.91 L204.1,404.67 L205.86,404.67 L212.01,407.31 L214.65,407.31 L218.17,409.07 L225.21,409.95 L226.09,410.83 L229.61,410.83 L230.49,411.71 L233.13,411.71 L234.01,412.59 L234.89,421.39 L239.29,429.31 L245.44,434.58 L251.6,437.22 L254.24,437.22 L255.12,438.1 L255.12,477.69 L254.24,478.57 L245.44,478.57 L244.56,477.69 L235.77,477.69 L234.89,476.81 L222.57,475.93 L221.69,475.05 L212.89,474.17 L212.01,473.29 L209.37,473.29 L208.49,472.41 L205.86,472.41 L204.98,471.53 L197.94,469.77 L190.9,463.62 L190.02,463.62 L175.95,449.54 L175.95,448.66 L167.15,438.1 L167.15,437.22 L161.87,430.19 L160.99,427.55 L163.63,424.03 L168.03,415.23 L170.67,412.59 L170.67,411.71 L172.43,410.83 L171.55,409.95 L173.31,406.43 L175.07,404.67 L179.46,395.88 Z
    M397.64,388.84 L395.88,388.84 L395.88,390.6 L397.64,391.48 L402.91,402.91 L395.88,410.83 L394.12,410.83 L393.24,411.71 L387.96,411.71 L386.2,412.59 L389.72,412.59 L390.6,411.71 L395,411.71 L396.76,412.59 L398.52,410.83 L398.52,409.07 L400.27,407.31 L400.27,406.43 L403.79,402.91 L397.64,391.48 Z
    M123.16,386.2 L122.28,387.08 L121.4,390.6 L120.52,391.48 L119.64,390.6 L120.52,392.36 L119.64,393.24 L116.12,393.24 L115.24,394.12 L118.76,395 L119.64,395.88 L118.76,396.76 L120.52,396.76 L121.4,397.64 L120.52,398.52 L122.28,400.27 L122.28,403.79 L123.16,403.79 L123.16,399.4 L124.92,396.76 L126.68,396.76 L127.56,397.64 L126.68,395.88 L127.56,395 L131.08,394.12 L125.8,393.24 L124.92,392.36 L125.8,390.6 L124.04,390.6 L123.16,389.72 Z
    M111.73,382.68 L108.21,386.2 L106.45,389.72 L106.45,391.48 L105.57,392.36 L106.45,399.4 L109.09,404.67 L114.36,409.07 L116.12,409.07 L117,409.95 L124.04,409.95 L124.92,409.07 L120.52,409.07 L114.36,406.43 L110.85,402.91 L109.09,399.4 L109.09,396.76 L108.21,395.88 L109.09,389.72 L111.73,384.44 L113.48,382.68 L116.12,381.8 L116.12,380.92 Z
    M329.02,392.36 L324.62,395.88 L322.86,395.88 L319.34,397.64 L307.02,397.64 L306.14,396.76 L295.59,396.76 L294.71,395.88 L287.67,395.88 L286.79,395 L282.39,395 L281.51,394.12 L277.99,394.12 L277.11,393.24 L273.59,393.24 L272.71,392.36 L273.59,391.48 L276.23,391.48 L277.11,390.6 L280.63,390.6 L281.51,389.72 L285.03,389.72 L285.91,388.84 L292.07,387.96 L292.95,387.08 L302.63,384.44 L305.26,382.68 L307.02,382.68 L312.3,380.04 L314.06,378.28 L317.58,376.52 L319.34,376.52 L321.1,378.28 L321.98,380.92 L323.74,382.68 L325.5,387.08 L327.26,388.84 Z
    M56.3,379.16 L60.7,376.52 L63.34,379.16 L68.62,387.96 L71.26,390.6 L73.02,394.12 L79.18,401.15 L79.18,402.03 L90.61,414.35 L90.61,415.23 L99.41,424.03 L100.29,424.03 L113.48,436.34 L114.36,436.34 L124.04,444.26 L127.56,446.02 L130.2,448.66 L141.64,454.82 L143.4,456.58 L143.4,457.46 L144.27,456.58 L147.79,459.22 L156.59,463.62 L158.35,463.62 L161.87,465.37 L160.99,464.49 L159.23,464.49 L157.47,462.74 L153.95,461.86 L152.19,460.1 L147.79,458.34 L144.27,455.7 L146.03,452.18 L147.79,450.42 L148.67,450.42 L165.39,459.22 L167.15,459.22 L171.55,461.86 L173.31,461.86 L180.34,465.37 L182.1,465.37 L187.38,468.01 L189.14,468.01 L197.94,475.05 L203.22,477.69 L204.98,479.45 L221.69,487.37 L220.81,488.25 L217.29,488.25 L216.41,487.37 L212.89,487.37 L212.01,486.49 L207.62,486.49 L206.74,485.61 L204.1,485.61 L203.22,484.73 L200.58,484.73 L199.7,483.85 L190.02,482.09 L183.86,479.45 L181.22,479.45 L178.58,477.69 L171.55,475.93 L168.91,474.17 L162.75,472.41 L156.59,468.89 L154.83,468.89 L151.31,466.25 L139.88,460.98 L138.12,459.22 L131.08,455.7 L129.32,453.94 L120.52,448.66 L114.36,443.38 L110.85,441.62 L87.97,421.39 L87.97,420.51 L80.05,412.59 L80.05,411.71 L70.38,401.15 L70.38,400.27 L67.74,397.64 L65.98,394.12 L63.34,391.48 L63.34,390.6 L56.3,380.92 Z
    M62.46,376.52 L64.22,374.76 L68.62,373 L76.54,385.32 L81.81,391.48 L83.57,395 L94.13,406.43 L94.13,407.31 L110.85,424.03 L111.73,424.03 L124.92,435.46 L125.8,435.46 L131.08,439.86 L133.72,440.74 L140.76,446.02 L146.03,448.66 L146.91,450.42 L145.15,453.94 L143.4,455.7 L139.88,453.06 L137.24,452.18 L135.48,450.42 L132.84,449.54 L126.68,444.26 L119.64,439.86 L116.12,436.34 L113.48,435.46 L106.45,428.43 L105.57,428.43 L80.93,402.91 L80.93,402.03 L77.42,398.52 L74.78,394.12 L71.26,390.6 L68.62,385.32 Z
    M319.34,374.76 L317.58,376.52 L305.26,382.68 L303.51,382.68 L300.87,384.44 L299.11,384.44 L298.23,385.32 L296.47,385.32 L290.31,387.96 L284.15,388.84 L283.27,389.72 L279.75,389.72 L278.87,390.6 L275.35,390.6 L274.47,391.48 L270.96,391.48 L270.08,392.36 L269.2,391.48 L262.16,390.6 L256,387.96 L256.88,387.08 L268.32,387.08 L269.2,386.2 L274.47,386.2 L275.35,385.32 L278.87,385.32 L279.75,384.44 L285.91,383.56 L286.79,382.68 L292.07,381.8 L294.71,380.04 L299.11,379.16 L301.75,377.4 L303.51,377.4 L314.94,371.24 L316.7,371.24 Z
    M182.1,391.48 L183.86,389.72 L184.74,387.08 L186.5,385.32 L187.38,382.68 L191.78,376.52 L193.54,376.52 L204.98,382.68 L206.74,382.68 L209.37,384.44 L213.77,385.32 L216.41,387.08 L219.05,387.08 L219.93,387.96 L222.57,387.96 L223.45,388.84 L226.09,388.84 L226.97,389.72 L229.61,389.72 L230.49,390.6 L234.01,390.6 L234.89,391.48 L240.16,391.48 L237.53,391.48 L236.65,390.6 L233.13,390.6 L232.25,389.72 L229.61,389.72 L228.73,388.84 L221.69,387.96 L220.81,387.08 L208.49,383.56 L202.34,380.04 L200.58,380.04 L195.3,377.4 L192.66,374.76 L192.66,373 L194.42,370.36 L204.1,375.64 L205.86,375.64 L216.41,380.92 L221.69,381.8 L222.57,382.68 L227.85,383.56 L228.73,384.44 L231.37,384.44 L232.25,385.32 L234.01,385.32 L234.89,386.2 L239.29,387.08 L241.92,388.84 L243.68,388.84 L247.2,390.6 L249.84,390.6 L250.72,391.48 L249.84,392.36 L244.56,392.36 L248.96,392.36 L249.84,393.24 L254.24,392.36 L255.12,393.24 L257.76,393.24 L258.64,394.12 L261.28,394.12 L262.16,395 L264.8,395 L265.68,395.88 L269.2,395.88 L270.08,396.76 L272.71,396.76 L273.59,397.64 L277.99,397.64 L278.87,398.52 L283.27,398.52 L284.15,399.4 L290.31,399.4 L291.19,400.27 L297.35,400.27 L298.23,401.15 L309.66,401.15 L310.54,402.03 L299.99,406.43 L297.35,406.43 L296.47,407.31 L293.83,407.31 L292.95,408.19 L290.31,408.19 L289.43,409.07 L286.79,409.07 L285.91,409.95 L282.39,409.95 L281.51,410.83 L276.23,410.83 L275.35,411.71 L275.35,413.47 L276.23,414.35 L275.35,415.23 L276.23,416.11 L275.35,416.99 L275.35,421.39 L273.59,424.03 L273.59,425.79 L270.96,428.43 L270.96,429.31 L268.32,431.95 L262.16,435.46 L259.52,435.46 L258.64,436.34 L252.48,436.34 L251.6,435.46 L248.96,435.46 L247.2,434.58 L239.29,427.55 L235.77,420.51 L235.77,415.23 L234.89,414.35 L235.77,413.47 L235.77,411.71 L234.89,410.83 L230.49,410.83 L229.61,409.95 L221.69,409.07 L220.81,408.19 L218.17,408.19 L217.29,407.31 L214.65,407.31 L213.77,406.43 L206.74,404.67 L204.1,402.91 L202.34,402.91 L197.94,400.27 L196.18,400.27 L183.86,394.12 L182.1,392.36 Z
    M438.98,370.36 L441.62,373 L441.62,373.88 L439.86,375.64 L436.34,381.8 L431.07,387.96 L427.55,394.12 L422.27,399.4 L422.27,400.27 L416.99,405.55 L416.99,406.43 L394.12,428.43 L393.24,428.43 L382.68,437.22 L381.8,437.22 L369.48,446.02 L366.85,446.9 L365.09,448.66 L364.21,448.66 L361.57,446.02 L356.29,435.46 L354.53,433.7 L353.65,431.07 L351.89,429.31 L351.01,426.67 L349.25,424.91 L348.37,422.27 L343.97,416.11 L342.21,411.71 L340.45,409.95 L339.57,407.31 L335.18,401.15 L336.05,400.27 L340.45,400.27 L341.33,399.4 L345.73,399.4 L346.61,398.52 L350.13,398.52 L351.01,397.64 L358.05,396.76 L358.93,395.88 L360.69,395.88 L361.57,395 L363.33,395 L364.21,394.12 L376.52,390.6 L385.32,386.2 L387.08,386.2 L392.36,383.56 L394.12,381.8 L406.43,375.64 L408.19,373.88 L414.35,370.36 L424.03,362.45 L426.67,363.33 L432.82,367.73 Z
    M356.29,357.17 L354.53,358.93 L355.41,359.81 L355.41,373.88 L356.29,374.76 L357.17,373.88 L357.17,371.24 L358.05,370.36 L365.09,370.36 L365.97,371.24 L365.97,374.76 L365.09,375.64 L365.09,377.4 L365.97,378.28 L368.6,378.28 L369.48,375.64 L368.6,375.64 L366.85,373.88 L366.85,368.6 L365.97,366.85 L361.57,364.21 L358.05,365.97 L357.17,365.09 L357.17,360.69 L358.93,359.81 L358.93,358.93 L358.05,358.93 L357.17,357.17 Z
    M146.03,357.17 L144.27,358.05 L146.91,358.93 L149.55,361.57 L151.31,368.6 L150.43,369.48 L149.55,373 L146.03,376.52 L145.15,376.52 L145.15,377.4 L151.31,377.4 L157.47,372.12 L158.35,370.36 L158.35,365.09 L157.47,364.21 L157.47,362.45 L153.95,358.93 Z
    M125.8,339.57 L131.08,346.61 L131.08,353.65 L131.96,354.53 L131.96,358.93 L132.84,359.81 L132.84,363.33 L133.72,364.21 L134.6,372.12 L135.48,373 L137.24,382.68 L139,386.2 L139,388.84 L139.88,389.72 L142.52,399.4 L144.27,402.03 L146.03,408.19 L148.67,412.59 L148.67,414.35 L153.95,424.91 L155.71,426.67 L157.47,430.19 L157.47,432.82 L153.95,437.22 L149.55,446.02 L146.91,448.66 L143.4,446.9 L139,443.38 L136.36,442.5 L127.56,435.46 L124.04,433.7 L120.52,430.19 L119.64,430.19 L116.12,426.67 L115.24,426.67 L106.45,417.87 L105.57,417.87 L88.85,400.27 L88.85,399.4 L85.33,395.88 L85.33,395 L81.81,391.48 L80.05,387.96 L77.42,385.32 L69.5,373 L75.66,368.6 L86.21,363.33 L90.61,359.81 L95.01,358.05 L96.77,356.29 L101.17,354.53 L102.93,352.77 L110.85,349.25 L115.24,345.73 L117.88,344.85 L119.64,343.09 L122.28,342.21 Z
    M434.58,330.78 L433.7,330.78 L431.95,332.54 L430.19,330.78 L429.31,334.3 L430.19,334.3 L431.07,336.05 L434.58,333.42 L432.82,332.54 Z
    M144.27,329.02 L146.03,330.78 L151.31,339.57 L160.11,349.25 L160.11,350.13 L172.43,362.45 L173.31,362.45 L176.82,365.97 L177.7,365.97 L180.34,368.6 L181.22,368.6 L190.9,375.64 L181.22,391.48 L179.46,391.48 L175.07,387.96 L172.43,387.08 L169.79,384.44 L168.91,384.44 L162.75,379.16 L161.87,379.16 L162.75,380.92 L163.63,380.92 L169.79,386.2 L178.58,391.48 L180.34,393.24 L180.34,394.12 L178.58,395.88 L172.43,407.31 L166.27,416.11 L162.75,424.03 L160.11,426.67 L150.43,408.19 L150.43,406.43 L146.91,399.4 L146.91,397.64 L146.03,396.76 L146.03,395 L143.4,388.84 L143.4,386.2 L141.64,382.68 L141.64,380.04 L139.88,376.52 L139.88,373 L139,372.12 L139,369.48 L138.12,368.6 L138.12,365.97 L137.24,365.09 L137.24,361.57 L136.36,360.69 L136.36,356.29 L135.48,355.41 L135.48,354.53 L136.36,353.65 L137.24,354.53 L137.24,353.65 L135.48,351.89 L135.48,350.13 L134.6,349.25 L133.72,336.05 L136.36,333.42 L140.76,331.66 Z
    M80.05,329.02 L80.05,330.78 L80.93,331.66 L80.93,336.05 L79.18,336.93 L80.05,337.81 L79.18,338.69 L80.93,338.69 L81.81,340.45 L81.81,339.57 L83.57,338.69 L83.57,336.93 L84.45,336.05 L83.57,336.05 L80.93,333.42 Z
    M147.79,327.26 L149.55,326.38 L151.31,328.14 L157.47,337.81 L169.79,351.01 L170.67,352.77 L171.55,352.77 L176.82,358.05 L177.7,358.05 L184.74,364.21 L194.42,370.36 L190.9,374.76 L189.14,373 L182.98,369.48 L180.34,366.85 L176.82,365.09 L160.99,350.13 L160.99,349.25 L153.07,340.45 L153.07,339.57 L146.03,329.9 L146.03,329.02 Z
    M105.57,328.14 L104.69,327.26 L102.05,327.26 L102.93,328.14 L99.41,329.9 L101.17,329.02 L102.93,329.02 L103.81,329.9 Z
    M420.51,359.81 L416.99,363.33 L416.11,363.33 L413.47,365.97 L412.59,365.97 L402.91,373 L380.92,384.44 L376.52,385.32 L373.88,387.08 L372.12,387.08 L366.85,389.72 L364.21,389.72 L358.05,392.36 L351.01,393.24 L350.13,394.12 L346.61,394.12 L345.73,395 L342.21,395 L341.33,395.88 L336.93,395.88 L336.05,396.76 L333.42,396.76 L330.78,393.24 L332.54,391.48 L341.33,386.2 L347.49,380.92 L348.37,380.92 L349.25,379.16 L336.05,388.84 L333.42,389.72 L331.66,391.48 L329.9,391.48 L320.22,375.64 L324.62,372.12 L327.26,371.24 L329.9,368.6 L334.3,365.97 L338.69,361.57 L339.57,361.57 L350.13,351.01 L350.13,350.13 L341.33,358.93 L340.45,358.93 L334.3,365.09 L333.42,365.09 L327.26,370.36 L321.98,373 L320.22,374.76 L317.58,372.12 L317.58,370.36 L319.34,368.6 L325.5,365.09 L332.54,358.93 L333.42,358.93 L351.01,341.33 L351.01,340.45 L359.81,329.02 L361.57,325.5 L365.09,327.26 L365.97,329.02 L364.21,330.78 L360.69,336.93 L358.05,339.57 L356.29,343.09 L358.93,340.45 L365.97,329.02 L367.73,329.02 L369.48,330.78 L373.88,332.54 L374.76,334.3 L376.52,334.3 L383.56,338.69 L382.68,342.21 L373.88,354.53 L374.76,354.53 L376.52,352.77 L376.52,351.89 L385.32,339.57 L388.84,341.33 L390.6,343.09 L393.24,343.97 L395,345.73 L399.4,347.49 L403.79,351.01 L411.71,354.53 L413.47,356.29 Z
    M96.77,323.74 L95.01,321.98 L95.01,319.34 L93.25,322.86 L92.37,321.98 L90.61,321.98 Z
    M444.26,315.82 L445.14,316.7 L444.26,318.46 L445.14,320.22 L444.26,321.1 L446.02,320.22 L446.9,321.1 L448.66,317.58 L447.78,316.7 Z
    M67.74,314.06 L72.14,315.82 L75.66,318.46 L78.3,322.86 L78.3,325.5 L79.18,327.26 L79.18,323.74 L78.3,322.86 L78.3,320.22 L79.18,319.34 L80.05,320.22 L87.97,321.1 L86.21,320.22 L81.81,320.22 L80.93,319.34 L79.18,319.34 L77.42,317.58 L73.02,316.7 Z
    M467.13,310.54 L468.01,311.42 L468.01,314.06 L467.13,314.94 L466.25,319.34 L464.49,321.98 L464.49,324.62 L462.74,327.26 L461.86,331.66 L458.34,338.69 L458.34,340.45 L454.82,346.61 L454.82,348.37 L445.14,367.73 L442.5,371.24 L440.74,371.24 L437.22,368.6 L428.43,364.21 L425.79,361.57 L428.43,358.93 L429.31,358.93 L450.42,336.93 L450.42,336.05 L453.06,333.42 L453.06,332.54 L455.7,329.9 L455.7,329.02 L460.98,321.98 Z
    M423.15,308.78 L424.91,310.54 L424.03,311.42 L424.03,316.7 L423.15,317.58 L424.03,318.46 L423.15,319.34 L423.15,321.1 L421.39,321.98 L421.39,323.74 L423.15,325.5 L424.91,325.5 L424.91,322.86 L424.03,321.98 L424.03,314.94 L424.91,314.06 L424.91,310.54 L426.67,309.66 L425.79,308.78 L424.91,309.66 Z
    M419.63,303.51 L417.87,303.51 L416.99,302.63 L415.23,303.51 L415.23,304.38 L416.99,307.02 L417.87,306.14 L419.63,306.14 Z
    M88.85,302.63 L89.73,303.51 L88.85,304.38 L91.49,307.02 L92.37,307.02 L93.25,308.78 L94.13,308.78 L94.13,307.9 L95.89,307.02 L97.65,304.38 L98.53,304.38 L96.77,304.38 L95.89,302.63 L94.13,301.75 L94.13,300.87 Z
    M444.26,299.99 L443.38,302.63 L438.98,307.9 L430.19,308.78 L437.22,308.78 L438.1,307.9 L441.62,310.54 L441.62,307.9 L440.74,307.02 Z
    M447.78,293.83 L446.02,294.71 L446.02,298.23 L447.78,296.47 L448.66,296.47 L448.66,294.71 Z
    M54.54,292.95 L54.54,293.83 L52.78,294.71 L52.78,297.35 L53.66,297.35 L55.42,299.99 L55.42,304.38 L56.3,305.26 L56.3,307.02 L55.42,307.9 L56.3,308.78 L60.7,309.66 L59.82,309.66 L56.3,306.14 L55.42,296.47 L57.18,295.59 L56.3,294.71 L57.18,292.95 L55.42,293.83 Z
    M478.57,285.03 L479.45,285.91 L479.45,291.19 L478.57,292.07 L478.57,296.47 L477.69,297.35 L477.69,300.87 L476.81,301.75 L476.81,304.38 L475.93,305.26 L475.93,309.66 L475.05,310.54 L474.17,316.7 L472.41,320.22 L471.53,326.38 L470.65,327.26 L468.01,336.93 L466.25,339.57 L466.25,341.33 L464.49,343.97 L462.74,350.13 L453.94,367.73 L452.18,369.48 L451.3,373 L447.78,374.76 L446.02,373 L447.78,371.24 L458.34,350.13 L458.34,348.37 L461.86,342.21 L461.86,340.45 L465.37,333.42 L465.37,331.66 L466.25,330.78 L466.25,329.02 L467.13,328.14 L467.13,326.38 L468.01,325.5 L468.01,323.74 L468.89,322.86 L468.89,321.1 L471.53,314.94 L471.53,312.3 L473.29,308.78 L473.29,306.14 L474.17,305.26 L474.17,302.63 L475.05,301.75 L475.05,298.23 L475.93,297.35 L475.93,294.71 L476.81,293.83 L476.81,290.31 L477.69,289.43 L477.69,285.91 Z
    M62.46,285.91 L62.46,287.67 L61.58,288.55 L63.34,287.67 L65.98,288.55 L65.1,287.67 L65.1,285.91 Z
    M133.72,278.87 L134.6,279.75 L135.48,288.55 L136.36,289.43 L138.12,299.11 L139,299.99 L141.64,309.66 L147.79,322.86 L149.55,324.62 L146.91,327.26 L145.15,327.26 L142.52,323.74 L141.64,321.1 L141.64,322.86 L144.27,328.14 L135.48,333.42 L133.72,333.42 L132.84,332.54 L132.84,316.7 L131.96,315.82 L131.96,303.51 L132.84,302.63 L134.6,305.26 L134.6,307.02 L133.72,301.75 L132.84,300.87 L132.84,279.75 Z
    M263.92,276.23 L263.92,281.51 L291.19,281.51 L291.19,275.35 L287.67,275.35 L286.79,274.47 L287.67,273.59 L290.31,273.59 L289.43,272.71 L291.19,270.96 L270.08,270.96 L271.84,271.84 L273.59,270.96 L275.35,271.84 L276.23,273.59 L277.11,272.71 L277.99,274.47 L277.11,275.35 L270.08,275.35 L269.2,276.23 L267.44,275.35 L266.56,276.23 Z
    M489.13,266.56 L490.01,267.44 L490.01,270.96 L489.13,271.84 L489.13,281.51 L488.25,282.39 L488.25,287.67 L487.37,288.55 L486.49,298.23 L485.61,299.11 L484.73,305.26 L482.09,310.54 L481.21,315.82 L479.45,319.34 L479.45,321.98 L477.69,324.62 L475.93,330.78 L464.49,353.65 L470.65,346.61 L471.53,347.49 L470.65,351.01 L468.01,355.41 L468.01,357.17 L461.86,369.48 L460.1,371.24 L453.94,382.68 L447.78,390.6 L444.26,396.76 L438.1,403.79 L438.1,404.67 L432.82,409.95 L432.82,410.83 L427.55,416.11 L427.55,416.99 L418.75,425.79 L417.87,425.79 L409.95,433.7 L409.07,433.7 L403.79,438.98 L402.91,438.98 L392.36,447.78 L391.48,447.78 L381.8,454.82 L374.76,458.34 L373,460.1 L368.6,461.86 L366.85,463.62 L358.05,468.01 L356.29,468.01 L348.37,472.41 L346.61,472.41 L343.97,474.17 L339.57,475.05 L338.69,474.17 L339.57,473.29 L361.57,461.86 L363.33,460.1 L374.76,453.06 L389.72,440.74 L390.6,440.74 L395.88,435.46 L396.76,435.46 L416.11,416.11 L416.11,415.23 L424.91,405.55 L424.91,404.67 L432.82,395 L432.82,394.12 L439.86,384.44 L443.38,377.4 L446.02,374.76 L447.78,376.52 L447.78,377.4 L449.54,377.4 L449.54,375.64 L456.58,365.97 L460.98,357.17 L462.74,356.29 L461.86,353.65 L464.49,348.37 L468.01,336.05 L469.77,333.42 L469.77,330.78 L471.53,328.14 L471.53,324.62 L473.29,321.98 L473.29,319.34 L475.05,315.82 L475.93,308.78 L476.81,307.9 L476.81,305.26 L477.69,304.38 L478.57,295.59 L479.45,294.71 L479.45,290.31 L480.33,289.43 L480.33,285.03 L481.21,284.15 L481.21,278.87 L482.09,277.99 L482.09,267.44 L482.97,266.56 Z
    M37.83,267.44 L38.71,266.56 L89.73,266.56 L91.49,269.2 L91.49,271.84 L95.01,277.99 L99.41,281.51 L102.93,283.27 L107.33,284.15 L108.21,285.03 L109.09,295.59 L109.97,296.47 L110.85,302.63 L113.48,308.78 L113.48,311.42 L114.36,312.3 L115.24,316.7 L117,319.34 L117,321.1 L118.76,323.74 L118.76,325.5 L124.92,336.93 L124.92,338.69 L123.16,340.45 L120.52,341.33 L114.36,345.73 L109.97,347.49 L108.21,349.25 L103.81,351.01 L97.65,355.41 L93.25,357.17 L91.49,358.93 L87.09,360.69 L85.33,362.45 L74.78,367.73 L70.38,371.24 L68.62,371.24 L66.86,369.48 L56.3,348.37 L56.3,346.61 L54.54,343.97 L54.54,342.21 L52.78,339.57 L52.78,337.81 L49.26,330.78 L48.38,325.5 L45.75,319.34 L45.75,316.7 L44.87,315.82 L44.87,314.06 L43.99,313.18 L43.99,309.66 L43.11,308.78 L43.11,305.26 L42.23,304.38 L42.23,300.87 L41.35,299.99 L41.35,296.47 L40.47,295.59 L39.59,281.51 L38.71,280.63 L38.71,268.32 Z
    M31.67,266.56 L36.95,266.56 L37.83,267.44 L37.83,279.75 L38.71,280.63 L38.71,286.79 L39.59,287.67 L39.59,293.83 L40.47,294.71 L41.35,304.38 L42.23,305.26 L42.23,307.9 L43.11,308.78 L43.11,311.42 L43.99,312.3 L45.75,321.98 L46.63,322.86 L46.63,324.62 L47.51,325.5 L51.02,337.81 L55.42,346.61 L55.42,348.37 L64.22,365.97 L65.98,367.73 L67.74,372.12 L64.22,374.76 L62.46,374.76 L59.82,372.12 L57.18,365.97 L55.42,364.21 L50.14,353.65 L50.14,351.89 L46.63,345.73 L46.63,343.97 L44.87,341.33 L43.99,336.93 L42.23,334.3 L42.23,331.66 L41.35,330.78 L41.35,329.02 L40.47,328.14 L40.47,326.38 L37.83,320.22 L37.83,317.58 L36.95,316.7 L36.95,314.06 L36.07,313.18 L36.07,310.54 L35.19,309.66 L35.19,306.14 L34.31,305.26 L34.31,301.75 L33.43,300.87 L33.43,295.59 L32.55,294.71 L31.67,277.11 L30.79,276.23 L30.79,267.44 Z
    M22.87,266.56 L29.03,266.56 L29.91,267.44 L30.79,287.67 L31.67,288.55 L31.67,292.95 L32.55,293.83 L32.55,299.11 L33.43,299.99 L33.43,304.38 L34.31,305.26 L35.19,313.18 L36.07,314.06 L36.07,316.7 L37.83,320.22 L37.83,322.86 L38.71,323.74 L38.71,325.5 L39.59,326.38 L43.11,338.69 L44.87,341.33 L44.87,343.09 L48.38,350.13 L47.51,351.01 L50.14,353.65 L50.14,355.41 L49.26,356.29 L43.11,347.49 L35.19,331.66 L35.19,329.9 L33.43,327.26 L33.43,325.5 L31.67,322.86 L31.67,321.1 L30.79,320.22 L30.79,318.46 L28.15,312.3 L28.15,309.66 L27.27,308.78 L26.39,303.51 L25.51,302.63 L25.51,298.23 L24.63,297.35 L23.75,287.67 L22.87,286.79 L22.87,279.75 L21.99,278.87 L21.99,267.44 Z
    M108.21,265.68 L109.09,266.56 L110.85,266.56 L109.97,264.8 Z
    M263.92,264.8 L263.92,269.2 L292.07,269.2 L292.07,267.44 L292.95,266.56 L292.07,264.8 L289.43,263.04 L289.43,262.16 L288.55,263.04 L287.67,262.16 L286.79,263.04 L285.91,262.16 L285.03,263.04 L284.15,262.16 L282.39,263.04 L281.51,262.16 L276.23,262.16 L277.11,263.04 L276.23,263.92 L264.8,263.92 Z
    M239.29,259.52 L236.65,263.92 L235.77,268.32 L231.37,277.11 L231.37,278.87 L226.97,287.67 L226.97,289.43 L233.13,289.43 L234.01,285.91 L235.77,283.27 L248.08,283.27 L249.84,285.91 L250.72,289.43 L256.88,289.43 L245.44,260.4 L244.56,259.52 Z
    M202.34,259.52 L201.46,260.4 L201.46,289.43 L207.62,289.43 L207.62,281.51 L208.49,280.63 L212.89,280.63 L219.05,289.43 L224.33,289.43 L225.21,288.55 L223.45,286.79 L219.93,280.63 L219.93,279.75 L223.45,276.23 L224.33,272.71 L225.21,271.84 L224.33,265.68 L222.57,263.92 L222.57,263.04 L218.17,260.4 L214.65,260.4 L213.77,259.52 Z
    M109.09,256 L109.09,258.64 L107.33,261.28 L102.93,259.52 L105.57,263.92 L104.69,264.8 L100.29,265.68 L105.57,268.32 L102.93,270.96 L102.93,272.71 L105.57,270.96 L107.33,270.96 L108.21,271.84 L109.09,275.35 L109.97,275.35 L110.85,270.08 L109.09,270.96 L106.45,269.2 L105.57,267.44 L105.57,263.92 L106.45,263.04 L108.21,263.04 L108.21,261.28 L109.09,260.4 L109.97,260.4 L111.73,263.04 L112.6,262.16 L113.48,263.04 L113.48,268.32 L112.6,269.2 L112.6,270.96 L117,272.71 L117,271.84 L115.24,270.96 L113.48,269.2 L113.48,268.32 L116.12,266.56 L118.76,266.56 L119.64,265.68 L115.24,264.8 L114.36,263.92 L114.36,262.16 L116.12,260.4 L116.12,259.52 L115.24,259.52 L113.48,261.28 L111.73,261.28 L110.85,260.4 L110.85,257.76 L109.97,256 Z
    M409.95,249.84 L405.55,249.84 L404.67,248.96 L402.03,248.96 L401.15,249.84 L400.27,248.96 L400.27,246.32 L395.88,246.32 L395,245.44 L385.32,245.44 L384.44,246.32 L381.8,246.32 L379.16,248.08 L380.04,248.96 L379.16,249.84 L377.4,248.96 L374.76,248.96 L369.48,251.6 L368.6,253.36 L366.85,255.12 L365.09,255.12 L364.21,256.88 L361.57,256.88 L358.93,251.6 L358.93,261.28 L358.05,262.16 L357.17,261.28 L357.17,248.08 L349.25,248.08 L348.37,248.96 L346.61,248.08 L347.49,248.08 L348.37,249.84 L345.73,253.36 L344.85,252.48 L340.45,256.88 L339.57,258.64 L339.57,262.16 L338.69,263.04 L337.81,262.16 L337.81,259.52 L335.18,263.92 L333.42,265.68 L329.9,267.44 L321.98,258.64 L320.22,253.36 L318.46,251.6 L317.58,251.6 L316.7,253.36 L315.82,252.48 L315.82,251.6 L314.06,249.84 L314.06,248.96 L314.94,248.08 L315.82,248.96 L315.82,248.08 L314.06,247.2 L313.18,248.08 L306.14,248.08 L306.14,255.12 L305.26,256 L304.38,255.12 L303.51,256 L304.38,256.88 L304.38,258.64 L303.51,259.52 L304.38,260.4 L304.38,265.68 L306.14,267.44 L306.14,268.32 L304.38,269.2 L306.14,270.08 L305.26,271.84 L304.38,270.96 L304.38,271.84 L306.14,273.59 L306.14,290.31 L304.38,291.19 L306.14,293.83 L306.14,295.59 L314.06,295.59 L314.94,294.71 L314.94,282.39 L315.82,281.51 L317.58,281.51 L318.46,282.39 L318.46,284.15 L321.1,283.27 L321.98,285.03 L323.74,285.03 L325.5,286.79 L325.5,288.55 L327.26,288.55 L328.14,289.43 L329.02,288.55 L329.9,289.43 L333.42,289.43 L334.3,288.55 L335.18,289.43 L336.93,289.43 L337.81,288.55 L337.81,284.15 L341.33,281.51 L344.85,281.51 L346.61,284.15 L346.61,287.67 L348.37,289.43 L347.49,290.31 L345.73,290.31 L346.61,291.19 L346.61,293.83 L347.49,293.83 L348.37,295.59 L355.41,295.59 L356.29,296.47 L357.17,295.59 L358.05,296.47 L357.17,294.71 L357.17,292.95 L358.05,292.07 L357.17,291.19 L357.17,270.08 L358.05,269.2 L358.93,270.08 L358.93,285.03 L358.93,279.75 L359.81,278.87 L360.69,279.75 L360.69,285.03 L362.45,285.03 L364.21,286.79 L365.09,285.91 L365.97,286.79 L365.09,288.55 L363.33,288.55 L365.09,288.55 L365.97,289.43 L371.24,289.43 L372.12,291.19 L373.88,292.07 L373.88,292.95 L378.28,295.59 L379.16,295.59 L380.04,293.83 L380.92,294.71 L383.56,294.71 L384.44,296.47 L385.32,295.59 L395,295.59 L395.88,294.71 L398.52,294.71 L407.31,289.43 L408.19,286.79 L403.79,282.39 L402.03,282.39 L400.27,284.15 L399.4,283.27 L395.88,283.27 L394.12,285.03 L389.72,285.03 L388.84,285.91 L386.2,284.15 L383.56,284.15 L380.04,279.75 L380.04,283.27 L379.16,284.15 L374.76,277.99 L373.88,270.08 L374.76,269.2 L378.28,269.2 L378.28,267.44 L379.16,266.56 L379.16,261.28 L380.04,260.4 L379.16,259.52 L381.8,256.88 L383.56,257.76 L386.2,257.76 L387.08,256.88 L395,256.88 L396.76,257.76 L398.52,256.88 L402.03,260.4 L403.79,259.52 L405.55,260.4 L409.07,257.76 L412.59,258.64 L410.83,258.64 L408.19,255.12 L409.07,253.36 L407.31,250.72 L408.19,249.84 Z
    M193.54,236.65 L194.42,238.41 L192.66,240.16 L189.14,247.2 L189.14,248.96 L186.5,255.12 L186.5,257.76 L185.62,258.64 L185.62,263.04 L184.74,263.92 L184.74,284.15 L185.62,285.03 L185.62,288.55 L186.5,289.43 L186.5,292.07 L187.38,292.95 L189.14,299.99 L196.18,312.3 L201.46,317.58 L200.58,318.46 L199.7,318.46 L190.9,309.66 L190.9,308.78 L188.26,306.14 L183.86,297.35 L183.86,295.59 L181.22,289.43 L181.22,285.03 L180.34,284.15 L180.34,276.23 L179.46,275.35 L179.46,271.84 L180.34,270.96 L180.34,263.92 L181.22,263.04 L181.22,259.52 L182.1,258.64 L182.1,256 L182.98,255.12 L183.86,250.72 L189.14,241.04 Z
    M131.96,236.65 L131.08,237.53 L131.08,240.16 Z
    M420.51,235.77 L424.03,235.77 L424.91,236.65 L424.03,237.53 L418.75,237.53 L415.23,239.29 L411.71,242.8 L416.99,247.2 L418.75,247.2 L419.63,248.08 L416.99,249.84 L413.47,249.84 L416.99,249.84 L418.75,251.6 L417.87,253.36 L416.11,254.24 L415.23,256 L414.35,256 L415.23,258.64 L412.59,261.28 L412.59,264.8 L432.82,264.8 L432.82,259.52 L423.15,259.52 L422.27,258.64 L424.03,256.88 L424.91,257.76 L428.43,257.76 L427.55,256.88 L428.43,255.12 L427.55,254.24 L431.95,248.96 L431.95,242.8 L432.82,241.92 L433.7,242.8 L433.7,244.56 L433.7,242.8 L431.07,238.41 L427.55,235.77 Z
    M65.1,231.37 L66.86,235.77 L65.1,236.65 L67.74,239.29 L70.38,236.65 L70.38,235.77 L68.62,234.89 L68.62,233.13 L66.86,234.01 L65.1,232.25 Z
    M451.3,229.61 L451.3,231.37 L452.18,230.49 Z
    M430.19,223.45 L430.19,224.33 L435.46,224.33 L433.7,224.33 L431.07,222.57 Z
    M372.12,217.29 L373,220.81 L373,218.17 Z
    M447.78,214.65 L447.78,218.17 L448.66,219.05 L448.66,225.21 L447.78,226.09 L441.62,226.09 L444.26,226.09 L447.78,227.85 L450.42,227.85 L450.42,225.21 L448.66,222.57 L448.66,217.29 L447.78,216.41 Z
    M56.3,214.65 L56.3,215.53 L54.54,216.41 L55.42,219.05 L56.3,218.17 L58.06,219.93 L57.18,218.17 L58.94,216.41 L57.18,214.65 Z
    M422.27,214.65 L424.91,215.53 L426.67,213.77 L423.15,213.77 Z
    M89.73,212.89 L87.09,212.89 L86.21,213.77 L81.81,213.77 L83.57,213.77 L84.45,215.53 L86.21,215.53 L87.09,216.41 Z
    M409.07,211.13 L409.07,212.01 L405.55,215.53 L409.95,219.93 L411.71,219.05 L413.47,217.29 L413.47,216.41 L415.23,215.53 L415.23,214.65 L413.47,214.65 L412.59,212.89 Z
    M73.02,211.13 L73.9,212.89 L73.02,213.77 L73.9,215.53 L75.66,213.77 L76.54,214.65 L77.42,213.77 L79.18,213.77 L77.42,212.01 L75.66,212.01 L74.78,212.89 Z
    M446.9,203.22 L446.9,204.1 L446.02,204.98 L444.26,204.98 L444.26,206.74 L441.62,208.49 L444.26,207.62 L445.14,208.49 L444.26,209.37 L446.02,209.37 L446.9,210.25 L446.9,212.01 L447.78,212.01 L446.9,211.13 L449.54,208.49 L448.66,206.74 L449.54,205.86 L447.78,204.98 Z
    M416.11,200.58 L414.35,200.58 L414.35,201.46 L415.23,202.34 Z
    M114.36,200.58 L112.6,199.7 L110.85,202.34 L97.65,208.49 L108.21,203.22 L109.97,203.22 L110.85,202.34 L112.6,203.22 L114.36,201.46 Z
    M65.98,198.82 L65.1,198.82 L64.22,200.58 L65.1,202.34 L64.22,203.22 L65.1,203.22 L65.98,201.46 L66.86,202.34 L67.74,200.58 Z
    M455.7,197.06 L455.7,197.94 L456.58,197.94 L456.58,197.06 Z
    M212.89,195.3 L209.37,197.06 L209.37,197.94 L207.62,199.7 L207.62,204.1 L210.25,206.74 L210.25,217.29 L208.49,219.05 L206.74,219.05 L194.42,226.09 L184.74,235.77 L178.58,245.44 L178.58,247.2 L175.95,252.48 L175.07,258.64 L173.31,260.4 L168.91,260.4 L167.15,258.64 L162.75,257.76 L158.35,261.28 L158.35,267.44 L161.87,270.08 L165.39,270.08 L168.91,267.44 L169.79,268.32 L171.55,268.32 L172.43,267.44 L173.31,268.32 L173.31,279.75 L172.43,280.63 L168.03,280.63 L165.39,278.87 L161.87,278.87 L160.11,279.75 L158.35,282.39 L158.35,287.67 L160.99,290.31 L166.27,290.31 L168.91,288.55 L173.31,288.55 L175.07,290.31 L177.7,299.99 L182.1,308.78 L184.74,311.42 L184.74,312.3 L197.94,324.62 L210.25,330.78 L210.25,342.21 L207.62,345.73 L208.49,350.13 L210.25,351.89 L212.01,352.77 L215.53,352.77 L217.29,351.89 L219.93,348.37 L219.93,344.85 L218.17,342.21 L218.17,332.54 L219.05,331.66 L221.69,331.66 L222.57,332.54 L227.85,332.54 L229.61,331.66 L230.49,332.54 L230.49,341.33 L228.73,343.97 L228.73,349.25 L229.61,351.01 L232.25,352.77 L236.65,352.77 L240.16,350.13 L240.16,348.37 L241.04,347.49 L240.16,343.97 L238.41,342.21 L238.41,331.66 L239.29,330.78 L243.68,330.78 L244.56,329.9 L248.96,329.02 L262.16,321.98 L265.68,323.74 L267.44,323.74 L268.32,322.86 L268.32,319.34 L267.44,318.46 L267.44,316.7 L263.92,311.42 L264.8,309.66 L260.4,305.26 L259.52,306.14 L256.88,304.38 L251.6,305.26 L248.96,307.02 L250.72,310.54 L249.84,313.18 L244.56,318.46 L239.29,321.1 L234.01,321.98 L233.13,322.86 L222.57,322.86 L221.69,321.98 L219.05,321.98 L216.41,320.22 L214.65,320.22 L212.89,318.46 L210.25,317.58 L201.46,308.78 L201.46,307.9 L197.94,303.51 L193.54,292.95 L193.54,290.31 L192.66,289.43 L193.54,288.55 L197.94,288.55 L197.94,281.51 L197.06,280.63 L192.66,280.63 L191.78,279.75 L191.78,269.2 L192.66,268.32 L197.94,268.32 L197.94,260.4 L193.54,260.4 L192.66,259.52 L192.66,257.76 L193.54,256.88 L195.3,249.84 L200.58,240.16 L207.62,232.25 L208.49,232.25 L212.89,228.73 L214.65,228.73 L219.93,226.09 L225.21,226.09 L226.09,225.21 L234.89,226.09 L235.77,226.97 L241.04,227.85 L245.44,230.49 L249.84,234.89 L249.84,239.29 L248.96,240.16 L252.48,242.8 L256.88,243.68 L263.04,238.41 L268.32,229.61 L269.2,225.21 L268.32,224.33 L259.52,225.21 L256,223.45 L254.24,221.69 L255.12,220.81 L253.36,219.93 L250.72,220.81 L245.44,218.17 L239.29,217.29 L238.41,216.41 L238.41,206.74 L241.04,203.22 L241.04,200.58 L237.53,196.18 L235.77,196.18 L234.89,195.3 L231.37,196.18 L229.61,197.94 L227.85,201.46 L228.73,204.98 L230.49,206.74 L230.49,214.65 L229.61,215.53 L222.57,215.53 L221.69,216.41 L219.05,216.41 L218.17,215.53 L218.17,206.74 L219.93,204.1 L219.93,199.7 L217.29,196.18 L215.53,195.3 Z
    M127.56,194.42 L134.6,197.94 L136.36,199.7 L136.36,200.58 L137.24,199.7 L140.76,201.46 L145.15,204.98 L142.52,208.49 L138.12,217.29 L138.12,219.05 L134.6,226.09 L134.6,228.73 L132.84,231.37 L132.84,233.13 L133.72,229.61 L135.48,226.97 L135.48,225.21 L137.24,222.57 L137.24,220.81 L144.27,206.74 L146.03,204.98 L146.91,204.98 L149.55,206.74 L149.55,208.49 L142.52,221.69 L142.52,223.45 L139,230.49 L139,232.25 L137.24,235.77 L137.24,238.41 L136.36,239.29 L136.36,241.92 L135.48,242.8 L135.48,245.44 L134.6,246.32 L134.6,248.96 L133.72,249.84 L132.84,257.76 L131.96,258.64 L131.96,263.04 L131.08,263.92 L131.08,268.32 L130.2,269.2 L130.2,276.23 L129.32,277.11 L129.32,285.91 L128.44,286.79 L128.44,329.02 L129.32,329.9 L129.32,336.05 L127.56,337.81 L126.68,337.81 L124.92,336.05 L119.64,325.5 L119.64,323.74 L117.88,321.1 L117.88,319.34 L115.24,314.06 L115.24,311.42 L112.6,306.14 L112.6,303.51 L111.73,302.63 L111.73,299.99 L110.85,299.11 L109.97,290.31 L109.09,289.43 L109.09,284.15 L108.21,283.27 L104.69,283.27 L99.41,280.63 L94.13,275.35 L92.37,271.84 L92.37,269.2 L91.49,268.32 L91.49,263.92 L92.37,263.04 L92.37,260.4 L94.13,256.88 L99.41,251.6 L105.57,248.96 L109.09,248.96 L109.09,244.56 L109.97,243.68 L110.85,235.77 L111.73,234.89 L112.6,228.73 L113.48,227.85 L117,215.53 Z
    M453.94,191.78 L452.18,191.78 L451.3,193.54 L453.06,193.54 Z
    M62.46,187.38 L60.7,189.14 L60.7,190.02 L61.58,190.02 L63.34,191.78 L63.34,192.66 L63.34,190.9 L65.1,190.02 L65.1,189.14 L64.22,189.14 L63.34,187.38 Z
    M351.89,169.79 L352.77,172.43 L356.29,175.95 L359.81,176.82 L358.05,175.95 Z
    M466.25,168.03 L469.77,174.19 L469.77,175.95 L474.17,183.86 L474.17,185.62 L477.69,192.66 L477.69,194.42 L478.57,195.3 L478.57,197.06 L479.45,197.94 L479.45,199.7 L480.33,200.58 L480.33,202.34 L482.97,208.49 L484.73,218.17 L485.61,219.05 L485.61,222.57 L486.49,223.45 L486.49,226.97 L487.37,227.85 L487.37,231.37 L488.25,232.25 L488.25,238.41 L489.13,239.29 L489.13,248.96 L490.01,249.84 L490.01,264.8 L489.13,265.68 L483.85,265.68 L482.97,264.8 L482.97,260.4 L482.09,259.52 L482.09,237.53 L481.21,236.65 L481.21,231.37 L482.09,230.49 L481.21,229.61 L482.09,228.73 L480.33,227.85 L479.45,218.17 L478.57,217.29 L478.57,213.77 L477.69,212.89 L476.81,205.86 L475.93,204.98 L475.93,202.34 L474.17,198.82 L473.29,192.66 L470.65,187.38 L468.01,177.7 L464.49,170.67 L464.49,169.79 Z
    M160.11,168.91 L159.23,168.91 L154.83,174.19 L150.43,176.82 L153.07,176.82 L154.83,175.95 L159.23,171.55 L159.23,169.79 Z
    M385.32,170.67 L386.2,172.43 L387.96,172.43 L389.72,169.79 L392.36,169.79 L394.12,168.03 L396.76,167.15 L390.6,169.79 L387.96,169.79 L387.08,168.91 L387.08,165.39 L387.08,168.91 Z
    M192.66,160.11 L194.42,163.63 L192.66,165.39 L190.02,166.27 L188.26,168.03 L184.74,169.79 L178.58,175.07 L177.7,175.07 L169.79,182.98 L168.91,182.98 L160.11,192.66 L160.11,193.54 L154.83,199.7 L150.43,206.74 L148.67,205.86 L146.91,204.1 L146.91,202.34 L151.31,197.06 L153.07,193.54 L156.59,190.02 L156.59,189.14 L174.19,171.55 L175.07,171.55 L177.7,168.91 L178.58,168.91 L181.22,166.27 L182.1,166.27 L189.14,160.99 Z
    M408.19,160.99 L406.43,161.87 L404.67,160.11 L405.55,161.87 L403.79,163.63 L400.27,165.39 L403.79,164.51 L404.67,163.63 L407.31,164.51 L408.19,163.63 Z
    M234.01,160.99 L233.13,161.87 L226.09,162.75 L225.21,163.63 L215.53,166.27 L198.82,174.19 L197.06,175.95 L190.9,179.46 L188.26,182.1 L187.38,182.1 L183.86,185.62 L182.98,185.62 L166.27,203.22 L166.27,204.1 L160.99,211.13 L160.11,213.77 L158.35,215.53 L153.07,226.09 L153.07,227.85 L149.55,234.89 L149.55,237.53 L148.67,238.41 L148.67,241.04 L147.79,241.92 L147.79,244.56 L146.91,245.44 L146.03,255.12 L145.15,256 L145.15,279.75 L146.03,280.63 L146.03,285.91 L146.91,286.79 L146.91,289.43 L147.79,290.31 L147.79,292.95 L148.67,293.83 L148.67,296.47 L149.55,297.35 L151.31,304.38 L159.23,321.1 L160.99,322.86 L166.27,331.66 L174.19,340.45 L174.19,341.33 L184.74,351.01 L185.62,351.01 L191.78,356.29 L192.66,356.29 L197.06,359.81 L199.7,360.69 L201.46,362.45 L207.62,365.09 L209.37,366.85 L211.13,366.85 L215.53,369.48 L217.29,369.48 L218.17,370.36 L219.93,370.36 L220.81,371.24 L222.57,371.24 L228.73,373.88 L232.25,373.88 L233.13,374.76 L236.65,374.76 L237.53,375.64 L242.8,375.64 L243.68,376.52 L268.32,376.52 L269.2,375.64 L274.47,375.64 L275.35,374.76 L278.87,374.76 L279.75,373.88 L285.91,373 L286.79,372.12 L293.83,370.36 L296.47,368.6 L298.23,368.6 L308.78,363.33 L310.54,361.57 L313.18,360.69 L314.94,358.93 L321.1,355.41 L323.74,352.77 L324.62,352.77 L329.02,348.37 L329.9,348.37 L343.09,334.3 L343.09,333.42 L345.73,330.78 L345.73,329.9 L349.25,325.5 L350.13,322.86 L351.89,321.1 L357.17,309.66 L356.29,309.66 L351.89,319.34 L348.37,323.74 L347.49,326.38 L338.69,336.93 L338.69,337.81 L328.14,348.37 L327.26,348.37 L322.86,352.77 L319.34,354.53 L311.42,360.69 L297.35,367.73 L290.31,369.48 L287.67,371.24 L285.03,371.24 L281.51,373 L274.47,373.88 L273.59,374.76 L267.44,374.76 L266.56,375.64 L243.68,375.64 L242.8,374.76 L237.53,374.76 L236.65,373.88 L226.97,372.12 L226.09,371.24 L216.41,368.6 L212.01,365.97 L210.25,365.97 L206.74,364.21 L204.98,362.45 L196.18,358.05 L194.42,356.29 L190.9,354.53 L187.38,351.01 L186.5,351.01 L168.91,333.42 L167.15,329.9 L160.99,321.98 L157.47,314.06 L155.71,312.3 L154.83,308.78 L153.07,306.14 L153.07,304.38 L151.31,301.75 L150.43,297.35 L149.55,296.47 L148.67,289.43 L147.79,288.55 L147.79,285.03 L146.91,284.15 L146.91,278.87 L146.03,277.99 L146.03,256 L146.91,255.12 L146.91,249.84 L147.79,248.96 L149.55,239.29 L151.31,235.77 L151.31,233.13 L162.75,210.25 L167.15,204.98 L167.15,204.1 L170.67,200.58 L170.67,199.7 L184.74,185.62 L185.62,185.62 L197.06,176.82 L201.46,175.07 L203.22,173.31 L210.25,169.79 L212.01,169.79 L216.41,167.15 L218.17,167.15 L221.69,165.39 L224.33,165.39 L227.85,163.63 L231.37,163.63 L232.25,162.75 L234.89,162.75 L235.77,161.87 L240.16,161.87 L241.04,160.99 L252.48,160.99 L253.36,160.11 L255.12,160.11 L256,160.99 L268.32,160.99 L269.2,161.87 L274.47,161.87 L275.35,162.75 L279.75,162.75 L280.63,163.63 L283.27,163.63 L284.15,164.51 L285.91,164.51 L286.79,165.39 L299.11,168.91 L311.42,175.07 L313.18,176.82 L315.82,177.7 L321.1,182.1 L321.98,182.1 L332.54,191.78 L333.42,191.78 L344.85,204.98 L344.85,205.86 L347.49,208.49 L348.37,211.13 L350.13,212.89 L351.01,215.53 L352.77,217.29 L357.17,226.09 L357.17,227.85 L359.81,232.25 L360.69,235.77 L360.69,233.13 L359.81,232.25 L358.93,227.85 L352.77,215.53 L351.01,213.77 L347.49,206.74 L344.85,204.1 L342.21,199.7 L326.38,183.86 L325.5,183.86 L322.86,181.22 L321.98,181.22 L314.94,175.95 L310.54,174.19 L308.78,172.43 L298.23,167.15 L296.47,167.15 L292.95,165.39 L290.31,165.39 L284.15,162.75 L277.11,161.87 L276.23,160.99 L272.71,160.99 L271.84,160.11 L263.04,160.11 L262.16,159.23 L248.96,159.23 L248.08,160.11 L240.16,160.11 L239.29,160.99 Z
    M64.22,156.59 L65.98,158.35 L68.62,159.23 L71.26,161.87 L79.18,165.39 L85.33,169.79 L89.73,171.55 L94.13,175.07 L102.93,179.46 L104.69,181.22 L107.33,182.1 L109.09,183.86 L111.73,184.74 L117.88,189.14 L122.28,190.9 L126.68,194.42 L124.04,199.7 L122.28,201.46 L119.64,206.74 L119.64,208.49 L117.88,211.13 L117.88,212.89 L116.12,215.53 L116.12,217.29 L115.24,218.17 L115.24,219.93 L114.36,220.81 L114.36,222.57 L111.73,228.73 L111.73,231.37 L110.85,232.25 L110.85,234.89 L109.97,235.77 L109.97,239.29 L109.09,240.16 L109.09,244.56 L108.21,245.44 L108.21,247.2 L107.33,248.08 L102.05,248.96 L98.53,250.72 L92.37,257.76 L91.49,263.04 L89.73,265.68 L39.59,265.68 L37.83,263.92 L38.71,263.04 L37.83,262.16 L37.83,256.88 L38.71,256 L38.71,241.04 L39.59,240.16 L39.59,233.13 L40.47,232.25 L40.47,225.21 L41.35,224.33 L41.35,220.81 L42.23,219.93 L42.23,214.65 L43.99,211.13 L43.99,207.62 L45.75,204.1 L45.75,200.58 L47.51,197.94 L48.38,191.78 L51.02,186.5 L51.9,182.1 L56.3,173.31 L56.3,170.67 L58.06,168.91 L58.06,167.15 L59.82,165.39 L59.82,163.63 L61.58,161.87 L61.58,160.11 Z
    M452.18,153.95 L453.94,155.71 L458.34,164.51 L458.34,166.27 L460.98,170.67 L460.98,172.43 L465.37,181.22 L465.37,182.98 L466.25,183.86 L466.25,185.62 L467.13,186.5 L467.13,188.26 L468.01,189.14 L468.01,190.9 L470.65,197.06 L470.65,199.7 L471.53,200.58 L471.53,203.22 L472.41,204.1 L472.41,206.74 L473.29,207.62 L473.29,211.13 L474.17,212.01 L474.17,214.65 L475.05,215.53 L475.05,219.93 L475.93,220.81 L475.93,225.21 L476.81,226.09 L476.81,234.01 L477.69,234.89 L477.69,259.52 L476.81,260.4 L476.81,264.8 L475.93,265.68 L474.17,265.68 L473.29,264.8 L473.29,244.56 L472.41,243.68 L472.41,234.89 L471.53,234.01 L471.53,227.85 L470.65,226.97 L469.77,217.29 L468.89,216.41 L468.89,213.77 L468.01,212.89 L468.01,209.37 L467.13,208.49 L466.25,201.46 L465.37,200.58 L464.49,196.18 L462.74,193.54 L462.74,190.9 L461.86,190.02 L459.22,180.34 L457.46,177.7 L457.46,175.95 L455.7,174.19 L455.7,172.43 L447.78,156.59 Z
    M58.06,153.07 L62.46,156.59 L62.46,158.35 L52.78,177.7 L51.9,182.1 L50.14,184.74 L50.14,187.38 L48.38,190.02 L48.38,191.78 L45.75,197.94 L44.87,204.1 L43.99,204.98 L43.11,213.77 L41.35,217.29 L41.35,221.69 L40.47,222.57 L40.47,226.09 L39.59,226.97 L38.71,240.16 L37.83,241.04 L37.83,262.16 L36.95,263.04 L37.83,264.8 L36.95,265.68 L31.67,265.68 L30.79,264.8 L30.79,247.2 L31.67,246.32 L31.67,234.89 L32.55,234.01 L32.55,227.85 L33.43,226.97 L33.43,222.57 L34.31,221.69 L35.19,212.01 L36.07,211.13 L36.07,208.49 L37.83,204.98 L37.83,202.34 L38.71,201.46 L38.71,198.82 L39.59,197.94 L39.59,195.3 L42.23,189.14 L43.11,183.86 L44.87,181.22 L44.87,179.46 L46.63,176.82 L48.38,170.67 L51.02,166.27 L51.02,164.51 L52.78,160.99 L54.54,159.23 L56.3,154.83 Z
    M146.91,220.81 L150.43,213.77 L152.19,212.01 L153.95,207.62 L160.11,199.7 L160.11,198.82 L163.63,195.3 L163.63,194.42 L179.46,178.58 L180.34,178.58 L183.86,175.07 L184.74,175.07 L190.02,170.67 L192.66,169.79 L197.06,166.27 L210.25,160.11 L212.01,160.11 L212.89,159.23 L214.65,159.23 L215.53,158.35 L217.29,158.35 L218.17,157.47 L219.93,157.47 L226.09,154.83 L229.61,154.83 L230.49,153.95 L234.01,153.95 L234.89,153.07 L239.29,153.07 L240.16,152.19 L250.72,152.19 L251.6,151.31 L270.08,152.19 L270.96,153.07 L277.11,153.07 L277.99,153.95 L280.63,153.95 L281.51,154.83 L285.03,154.83 L285.91,155.71 L298.23,159.23 L300.87,160.99 L302.63,160.99 L316.7,168.03 L318.46,169.79 L323.74,172.43 L329.9,177.7 L330.78,177.7 L342.21,188.26 L342.21,189.14 L351.89,199.7 L351.89,200.58 L357.17,207.62 L358.05,210.25 L359.81,212.01 L365.09,222.57 L365.09,224.33 L368.6,231.37 L368.6,234.01 L369.48,234.89 L370.36,239.29 L372.12,239.29 L373,240.16 L373,236.65 L372.12,235.77 L372.12,233.13 L371.24,232.25 L371.24,229.61 L370.36,228.73 L368.6,221.69 L361.57,208.49 L361.57,206.74 L365.09,204.98 L368.6,209.37 L368.6,211.13 L370.36,212.89 L370.36,214.65 L371.24,214.65 L371.24,213.77 L369.48,212.01 L369.48,210.25 L367.73,208.49 L366.85,204.1 L370.36,201.46 L376.52,198.82 L378.28,197.06 L383.56,194.42 L392.36,211.13 L392.36,212.89 L394.12,215.53 L394.12,217.29 L395,218.17 L395,219.93 L396.76,222.57 L396.76,225.21 L397.64,226.09 L396.76,220.81 L394.12,215.53 L394.12,213.77 L392.36,211.13 L391.48,206.74 L386.2,196.18 L384.44,194.42 L388.84,190.9 L393.24,189.14 L395,187.38 L399.4,185.62 L405.55,181.22 L416.11,175.95 L417.87,174.19 L420.51,173.31 L429.31,167.15 L435.46,164.51 L446.9,156.59 L448.66,158.35 L451.3,163.63 L451.3,165.39 L453.06,167.15 L453.94,171.55 L455.7,174.19 L455.7,175.95 L457.46,178.58 L459.22,184.74 L461.86,189.14 L461.86,190.9 L463.62,194.42 L463.62,197.94 L464.49,198.82 L465.37,204.1 L467.13,207.62 L467.13,211.13 L468.01,212.01 L468.01,215.53 L468.89,216.41 L468.89,219.93 L469.77,220.81 L469.77,226.09 L470.65,226.97 L471.53,241.92 L472.41,242.8 L472.41,264.8 L471.53,265.68 L445.14,265.68 L445.14,266.56 L471.53,266.56 L472.41,267.44 L472.41,277.11 L471.53,277.99 L471.53,285.91 L470.65,286.79 L470.65,292.07 L469.77,292.95 L468.89,297.35 L467.13,299.99 L467.13,301.75 L460.1,315.82 L458.34,317.58 L457.46,320.22 L455.7,321.98 L453.94,325.5 L445.14,336.05 L445.14,336.93 L437.22,344.85 L437.22,345.73 L421.39,359.81 L417.87,358.05 L416.11,356.29 L413.47,355.41 L411.71,353.65 L409.07,352.77 L407.31,351.01 L404.67,350.13 L402.91,348.37 L392.36,343.09 L386.2,338.69 L386.2,336.93 L388.84,331.66 L390.6,329.9 L391.48,326.38 L393.24,323.74 L394.12,319.34 L395.88,316.7 L395.88,314.06 L397.64,311.42 L397.64,308.78 L396.76,309.66 L395,316.7 L393.24,319.34 L393.24,321.1 L391.48,323.74 L391.48,325.5 L386.2,336.05 L384.44,337.81 L381.8,336.93 L380.04,335.18 L367.73,328.14 L367.73,325.5 L365.97,327.26 L365.09,327.26 L362.45,324.62 L369.48,309.66 L370.36,303.51 L368.6,302.63 L367.73,306.14 L363.33,314.06 L363.33,315.82 L360.69,319.34 L358.05,325.5 L356.29,327.26 L355.41,329.9 L350.13,336.05 L350.13,336.93 L346.61,340.45 L346.61,341.33 L327.26,359.81 L326.38,359.81 L321.1,364.21 L318.46,365.09 L314.06,368.6 L297.35,376.52 L295.59,376.52 L294.71,377.4 L292.95,377.4 L286.79,380.04 L280.63,380.92 L279.75,381.8 L275.35,381.8 L274.47,382.68 L270.08,382.68 L269.2,383.56 L241.92,383.56 L241.04,382.68 L235.77,382.68 L234.89,381.8 L232.25,381.8 L231.37,380.92 L221.69,379.16 L216.41,376.52 L212.01,375.64 L207.62,373 L205.86,373 L202.34,370.36 L196.18,367.73 L194.42,365.97 L185.62,360.69 L176.82,352.77 L175.95,352.77 L165.39,342.21 L165.39,341.33 L156.59,330.78 L155.71,328.14 L151.31,321.98 L146.03,311.42 L146.03,309.66 L144.27,307.02 L144.27,305.26 L141.64,299.11 L141.64,296.47 L140.76,295.59 L140.76,292.95 L139.88,292.07 L139.88,288.55 L139,287.67 L139,283.27 L138.12,282.39 L138.12,275.35 L137.24,274.47 L137.24,257.76 L138.12,256.88 L139,245.44 L139.88,244.56 L139.88,241.92 L140.76,241.04 L140.76,237.53 L141.64,236.65 L144.27,226.97 L146.91,222.57 Z
    M54.54,151.31 L56.3,153.07 L51.9,160.99 L51.9,162.75 L47.51,170.67 L47.51,172.43 L44.87,176.82 L43.99,181.22 L42.23,183.86 L42.23,185.62 L39.59,191.78 L38.71,197.94 L36.95,201.46 L35.19,212.01 L34.31,212.89 L33.43,221.69 L32.55,222.57 L32.55,226.97 L31.67,227.85 L31.67,233.13 L30.79,234.01 L30.79,241.04 L29.91,241.92 L29.91,264.8 L29.03,265.68 L22.87,265.68 L21.99,264.8 L21.99,242.8 L22.87,241.92 L22.87,234.89 L23.75,234.01 L23.75,229.61 L24.63,228.73 L24.63,225.21 L25.51,224.33 L25.51,220.81 L26.39,219.93 L26.39,216.41 L27.27,215.53 L28.15,209.37 L29.03,208.49 L29.03,206.74 L29.91,205.86 L29.91,204.1 L32.55,197.94 L32.55,195.3 L34.31,192.66 L34.31,190.9 L37.83,183.86 L37.83,182.1 L43.11,172.43 L43.11,170.67 L44.87,168.91 L48.38,160.99 L50.14,159.23 L51.02,156.59 L52.78,154.83 Z
    M146.91,150.43 L141.64,150.43 L138.12,153.95 L138.12,159.23 L143.4,163.63 L143.4,166.27 L142.52,167.15 L139.88,167.15 L139.88,168.03 L142.52,168.03 L143.4,168.91 L143.4,170.67 L144.27,170.67 L146.03,168.03 L147.79,168.03 L148.67,167.15 L147.79,166.27 L146.03,167.15 L144.27,165.39 L145.15,163.63 L150.43,159.23 L150.43,153.95 Z
    M372.12,148.67 L369.48,152.19 L364.21,152.19 L362.45,150.43 L362.45,149.55 L360.69,149.55 L360.69,150.43 L363.33,153.07 L361.57,154.83 L360.69,159.23 L361.57,160.99 L365.97,164.51 L365.97,166.27 L365.09,167.15 L362.45,167.15 L362.45,168.03 L365.09,168.03 L366.85,171.55 L368.6,168.03 L371.24,168.03 L370.36,166.27 L368.6,167.15 L366.85,164.51 L370.36,162.75 L373,159.23 L372.12,154.83 L370.36,153.07 L373,149.55 Z
    M379.16,142.52 L379.16,143.4 L380.04,143.4 L380.92,145.15 L380.92,144.27 Z
    M88.85,140.76 L87.09,141.64 L85.33,140.76 L84.45,142.52 L85.33,144.27 L87.09,144.27 Z
    M414.35,135.48 L412.59,136.36 L412.59,138.12 L414.35,137.24 Z
    M143.4,135.48 L143.4,136.36 L141.64,138.12 L143.4,139.88 L143.4,140.76 L144.27,140.76 L144.27,139.88 L146.91,138.12 L146.03,138.12 L144.27,136.36 L144.27,135.48 Z
    M433.7,134.6 L435.46,136.36 L437.22,139.88 L436.34,137.24 L434.58,135.48 L434.58,134.6 Z
    M392.36,134.6 L392.36,144.27 L386.2,150.43 L385.32,150.43 L382.68,146.91 L382.68,147.79 L384.44,149.55 L384.44,151.31 L386.2,153.07 L386.2,159.23 L387.08,159.23 L387.08,154.83 L386.2,153.95 L386.2,152.19 L387.08,151.31 L388.84,151.31 L389.72,150.43 L388.84,148.67 L392.36,146.91 L401.15,156.59 L401.15,155.71 L395.88,150.43 L395.88,149.55 L394.12,148.67 L393.24,146.91 L393.24,145.15 L392.36,144.27 Z
    M370.36,131.08 L371.24,133.72 L374.76,136.36 L373.88,134.6 L373.88,131.08 Z
    M103.81,131.08 L105.57,132.84 L109.09,131.08 L106.45,129.32 L105.57,129.32 L105.57,130.2 Z
    M99.41,131.08 L97.65,129.32 L95.89,131.08 L95.01,133.72 L95.89,132.84 L97.65,132.84 Z
    M390.6,128.44 L392.36,131.96 L394.12,130.2 Z
    M139.88,127.56 L139.88,128.44 L140.76,128.44 L142.52,131.08 L143.4,130.2 L143.4,128.44 L142.52,127.56 Z
    M84.45,124.92 L83.57,124.92 L83.57,125.8 L78.3,131.96 L76.54,135.48 L73.9,138.12 L71.26,143.4 Z
    M382.68,122.28 L382.68,124.04 L383.56,123.16 L385.32,124.04 L384.44,122.28 Z
    M411.71,118.76 L411.71,120.52 L412.59,121.4 L410.83,123.16 L409.07,123.16 L408.19,124.04 L409.95,124.04 L410.83,123.16 L412.59,124.04 L412.59,125.8 L413.47,126.68 L413.47,130.2 L413.47,124.04 L412.59,123.16 L414.35,122.28 L411.71,119.64 Z
    M262.16,117 L260.4,119.64 L258.64,119.64 L260.4,121.4 L259.52,123.16 L261.28,123.16 L262.16,122.28 L263.92,124.04 L264.8,123.16 L263.92,121.4 L265.68,119.64 L263.92,119.64 Z
    M318.46,115.24 L317.58,116.12 L317.58,117.88 L318.46,118.76 L320.22,118.76 L321.1,117.88 L321.1,116.12 L320.22,115.24 Z
    M418.75,114.36 L419.63,117 L424.91,122.28 L424.91,123.16 L428.43,126.68 L428.43,127.56 L431.95,131.96 L425.79,122.28 L419.63,116.12 Z
    M193.54,111.73 L193.54,113.48 L191.78,114.36 L192.66,115.24 L189.14,117 L190.02,117.88 L191.78,117.88 L193.54,119.64 L193.54,121.4 L194.42,121.4 L194.42,119.64 L196.18,117.88 L197.94,117.88 L198.82,117 L196.18,116.12 L194.42,114.36 L194.42,111.73 Z
    M359.81,109.97 L359.81,114.36 L358.05,117 L358.05,118.76 L362.45,123.16 L364.21,126.68 L367.73,130.2 L368.6,129.32 L362.45,119.64 L362.45,114.36 L361.57,115.24 L359.81,113.48 Z
    M130.2,109.09 L130.2,120.52 L129.32,121.4 L129.32,124.04 L127.56,126.68 L122.28,127.56 L125.8,127.56 L126.68,126.68 L128.44,126.68 L129.32,127.56 L130.2,126.68 L131.96,126.68 L131.96,125.8 L130.2,124.04 Z
    M255.12,108.21 L254.24,109.09 L251.6,109.09 L249.84,109.97 L245.44,114.36 L245.44,116.12 L244.56,117 L244.56,124.04 L245.44,124.92 L245.44,126.68 L249.84,131.08 L253.36,131.96 L254.24,132.84 L258.64,132.84 L262.16,131.08 L258.64,131.08 L257.76,130.2 L256,130.2 L250.72,124.04 L250.72,116.12 L254.24,111.73 L257.76,109.97 L259.52,109.97 L259.52,109.09 Z
    M98.53,108.21 L88.85,117.88 L87.09,121.4 L98.53,109.09 Z
    M361.57,103.81 L359.81,103.81 L360.69,104.69 L360.69,106.45 L360.69,104.69 Z
    M132.84,104.69 L131.08,103.81 L128.44,104.69 L130.2,107.33 L131.96,106.45 Z
    M183.86,142.52 L195.3,136.36 L197.06,136.36 L199.7,134.6 L201.46,134.6 L204.1,132.84 L205.86,132.84 L206.74,131.96 L208.49,131.96 L214.65,129.32 L217.29,129.32 L218.17,128.44 L220.81,128.44 L221.69,127.56 L224.33,127.56 L225.21,126.68 L234.89,125.8 L235.77,124.92 L235.77,116.12 L236.65,115.24 L236.65,112.6 L239.29,108.21 L242.8,104.69 L247.2,102.05 L248.96,102.05 L249.84,101.17 L253.36,101.17 L254.24,100.29 L257.76,100.29 L258.64,101.17 L262.16,101.17 L267.44,103.81 L271.84,108.21 L275.35,115.24 L275.35,124.92 L277.11,124.92 L277.99,125.8 L281.51,125.8 L282.39,126.68 L285.91,126.68 L286.79,127.56 L289.43,127.56 L290.31,128.44 L292.95,128.44 L293.83,129.32 L296.47,129.32 L297.35,130.2 L309.66,133.72 L314.06,136.36 L315.82,136.36 L324.62,140.76 L327.26,143.4 L324.62,146.91 L322.86,151.31 L321.1,153.07 L318.46,158.35 L307.9,153.07 L301.75,151.31 L299.11,149.55 L296.47,149.55 L295.59,148.67 L293.83,148.67 L290.31,146.91 L287.67,146.91 L286.79,146.03 L284.15,146.03 L283.27,145.15 L279.75,145.15 L278.87,144.27 L275.35,144.27 L274.47,143.4 L270.08,143.4 L275.35,144.27 L276.23,145.15 L279.75,145.15 L280.63,146.03 L287.67,146.91 L291.19,148.67 L293.83,148.67 L294.71,149.55 L299.11,150.43 L306.14,153.95 L307.9,153.95 L317.58,159.23 L315.82,162.75 L314.06,162.75 L306.14,158.35 L304.38,158.35 L299.99,155.71 L298.23,155.71 L292.07,153.07 L289.43,153.07 L288.55,152.19 L285.91,152.19 L285.03,151.31 L282.39,151.31 L281.51,150.43 L277.99,150.43 L277.11,149.55 L272.71,149.55 L271.84,148.67 L266.56,148.67 L265.68,147.79 L256.88,147.79 L256,146.91 L256,144.27 L255.12,143.4 L255.12,146.91 L254.24,147.79 L245.44,147.79 L244.56,148.67 L238.41,148.67 L237.53,149.55 L233.13,149.55 L232.25,150.43 L228.73,150.43 L227.85,151.31 L221.69,152.19 L220.81,153.07 L213.77,154.83 L211.13,156.59 L209.37,156.59 L197.06,162.75 L195.3,162.75 L193.54,159.23 L204.98,153.07 L206.74,153.07 L209.37,151.31 L211.13,151.31 L212.01,150.43 L213.77,150.43 L219.93,147.79 L222.57,147.79 L223.45,146.91 L226.09,146.91 L226.97,146.03 L229.61,146.03 L230.49,145.15 L235.77,145.15 L237.53,144.27 L232.25,144.27 L231.37,145.15 L227.85,145.15 L226.97,146.03 L223.45,146.03 L219.93,147.79 L217.29,147.79 L216.41,148.67 L209.37,150.43 L206.74,152.19 L204.98,152.19 L192.66,158.35 L189.14,151.31 L184.74,145.15 Z
    M143.4,102.05 L146.03,102.05 L146.91,103.81 L148.67,102.93 L147.79,99.41 L146.91,99.41 L145.15,102.05 Z
    M208.49,90.61 L208.49,94.13 L210.25,95.01 L212.01,93.25 Z
    M231.37,87.09 L228.73,89.73 L228.73,90.61 L230.49,90.61 L231.37,91.49 L232.25,90.61 Z
    M199.7,80.05 L201.46,80.05 L202.34,81.81 L203.22,81.81 L205.86,84.45 L206.74,87.09 L204.1,81.81 L205.86,80.05 L206.74,80.05 L204.98,80.05 L204.1,79.18 L202.34,80.05 Z
    M185.62,76.54 L186.5,76.54 L188.26,78.3 L188.26,79.18 L193.54,78.3 L190.9,77.42 L190.02,75.66 Z
    M180.34,74.78 L179.46,74.78 L177.7,73.02 L175.95,73.02 L175.95,73.9 L174.19,75.66 L163.63,80.93 L160.99,80.05 L160.11,80.93 L160.11,82.69 L161.87,83.57 L161.87,82.69 L164.51,80.05 L173.31,75.66 L175.07,75.66 L175.95,74.78 L176.82,75.66 Z
    M233.13,72.14 L232.25,72.14 L230.49,70.38 L226.09,73.9 L223.45,73.9 L220.81,75.66 L218.17,75.66 L216.41,76.54 L218.17,76.54 L221.69,74.78 L225.21,74.78 L228.73,73.02 L230.49,74.78 L230.49,75.66 L231.37,75.66 L231.37,73.9 L233.13,73.02 Z
    M274.47,68.62 L272.71,70.38 L272.71,71.26 L274.47,73.02 L275.35,73.02 L277.11,71.26 L277.11,70.38 L275.35,68.62 Z
    M309.66,65.98 L309.66,68.62 L308.78,69.5 L308.78,73.9 L307.9,74.78 L305.26,73.9 L302.63,71.26 L302.63,73.02 L305.26,76.54 L304.38,78.3 L299.99,78.3 L299.11,79.18 L295.59,79.18 L294.71,80.05 L304.38,80.93 L305.26,82.69 L301.75,87.97 L307.9,84.45 L308.78,85.33 L308.78,89.73 L309.66,90.61 L309.66,93.25 L310.54,93.25 L310.54,90.61 L311.42,89.73 L311.42,85.33 L313.18,84.45 L315.82,87.09 L318.46,87.97 L315.82,84.45 L314.94,81.81 L315.82,80.93 L323.74,80.05 L323.74,79.18 L315.82,78.3 L314.94,76.54 L318.46,71.26 L315.82,72.14 L313.18,74.78 L312.3,74.78 L311.42,73.9 L311.42,69.5 L310.54,68.62 L310.54,65.98 Z
    M256.88,42.23 L260.4,42.23 L261.28,43.11 L275.35,43.11 L276.23,43.99 L291.19,44.87 L292.07,45.75 L294.71,45.75 L295.59,46.63 L300.87,46.63 L304.38,48.38 L307.9,48.38 L311.42,50.14 L314.94,50.14 L317.58,51.9 L320.22,51.9 L321.1,52.78 L322.86,52.78 L329.02,55.42 L331.66,55.42 L334.3,57.18 L340.45,58.94 L342.21,60.7 L348.37,62.46 L350.13,64.22 L363.33,70.38 L367.73,73.9 L365.97,77.42 L364.21,79.18 L363.33,81.81 L360.69,84.45 L358.05,90.61 L353.65,96.77 L351.89,101.17 L348.37,105.57 L345.73,111.73 L343.97,113.48 L341.33,119.64 L339.57,121.4 L338.69,124.04 L334.3,130.2 L332.54,134.6 L330.78,136.36 L329.9,139 L327.26,141.64 L325.5,139.88 L321.98,139 L314.06,134.6 L312.3,134.6 L309.66,132.84 L302.63,131.08 L299.99,129.32 L297.35,129.32 L294.71,127.56 L292.07,127.56 L291.19,126.68 L288.55,126.68 L287.67,125.8 L277.99,124.92 L276.23,123.16 L276.23,114.36 L272.71,107.33 L266.56,102.05 L263.04,101.17 L262.16,100.29 L259.52,100.29 L256,98.53 L256,43.11 Z
    M333.42,35.19 L335.18,35.19 L340.45,37.83 L344.85,38.71 L348.37,40.47 L349.25,42.23 L351.01,41.35 L372.12,51.9 L373.88,53.66 L380.92,57.18 L382.68,58.94 L391.48,64.22 L397.64,69.5 L401.15,71.26 L405.55,75.66 L406.43,75.66 L410.83,80.05 L411.71,80.05 L433.7,102.05 L433.7,102.93 L437.22,106.45 L437.22,107.33 L440.74,110.85 L440.74,111.73 L444.26,115.24 L448.66,122.28 L451.3,124.92 L452.18,127.56 L455.7,131.96 L456.58,134.6 L458.34,136.36 L461.86,143.4 L463.62,145.15 L470.65,159.23 L470.65,160.99 L472.41,163.63 L472.41,165.39 L475.05,169.79 L475.93,174.19 L477.69,176.82 L477.69,178.58 L479.45,182.1 L479.45,184.74 L478.57,185.62 L475.93,180.34 L475.93,178.58 L467.13,160.99 L465.37,159.23 L463.62,154.83 L460.1,150.43 L459.22,147.79 L457.46,146.03 L452.18,137.24 L441.62,124.04 L441.62,123.16 L436.34,117.88 L436.34,117 L431.07,111.73 L431.07,110.85 L397.64,77.42 L396.76,77.42 L393.24,73.9 L392.36,73.9 L387.08,68.62 L386.2,68.62 L373.88,58.94 L373,58.94 L365.97,53.66 L363.33,52.78 L358.93,49.26 L336.93,37.83 L333.42,36.95 L332.54,36.07 Z
    M256,36.07 L256.88,35.19 L274.47,35.19 L275.35,36.07 L283.27,36.07 L284.15,36.95 L294.71,37.83 L295.59,38.71 L298.23,38.71 L299.11,39.59 L302.63,39.59 L303.51,40.47 L306.14,40.47 L307.02,41.35 L314.06,42.23 L320.22,44.87 L322.86,44.87 L323.74,45.75 L325.5,45.75 L326.38,46.63 L338.69,50.14 L371.24,65.98 L373,67.74 L387.08,76.54 L393.24,81.81 L394.12,81.81 L398.52,86.21 L399.4,86.21 L403.79,90.61 L404.67,90.61 L423.15,109.09 L423.15,109.97 L433.7,122.28 L435.46,125.8 L439.86,131.08 L440.74,133.72 L442.5,135.48 L445.14,140.76 L446.9,142.52 L447.78,145.15 L449.54,146.91 L452.18,153.07 L447.78,155.71 L446.02,153.95 L441.62,145.15 L439.86,143.4 L439.86,142.52 L438.98,142.52 L446.9,155.71 L445.14,157.47 L440.74,159.23 L438.98,160.99 L434.58,162.75 L425.79,168.91 L419.63,171.55 L417.87,173.31 L413.47,175.07 L411.71,176.82 L401.15,182.1 L396.76,185.62 L392.36,187.38 L390.6,189.14 L387.96,190.02 L384.44,192.66 L378.28,184.74 L376.52,181.22 L373.88,178.58 L374.76,181.22 L381.8,190.9 L382.68,193.54 L373.88,198.82 L373,197.94 L373,198.82 L371.24,200.58 L368.6,201.46 L366.85,203.22 L364.21,202.34 L365.09,203.22 L360.69,206.74 L354.53,197.06 L345.73,187.38 L345.73,186.5 L334.3,175.95 L333.42,175.95 L329.9,172.43 L318.46,165.39 L316.7,163.63 L316.7,162.75 L318.46,160.11 L321.98,160.99 L323.74,162.75 L329.9,166.27 L336.05,171.55 L336.93,171.55 L346.61,180.34 L346.61,179.46 L340.45,173.31 L339.57,173.31 L332.54,167.15 L331.66,167.15 L324.62,161.87 L321.98,160.99 L319.34,158.35 L321.98,153.95 L323.74,152.19 L324.62,152.19 L323.74,150.43 L326.38,146.03 L329.02,143.4 L329.9,143.4 L331.66,145.15 L334.3,146.03 L336.05,147.79 L339.57,149.55 L350.13,158.35 L352.77,159.23 L341.33,149.55 L329.9,142.52 L329.9,140.76 L332.54,137.24 L334.3,132.84 L336.05,131.08 L340.45,122.28 L342.21,120.52 L343.97,116.12 L348.37,109.97 L350.13,105.57 L351.89,103.81 L351.89,102.05 L355.41,97.65 L357.17,93.25 L363.33,84.45 L364.21,80.93 L368.6,74.78 L372.12,75.66 L373.88,77.42 L376.52,78.3 L379.16,80.93 L381.8,81.81 L388.84,87.97 L393.24,90.61 L397.64,95.01 L398.52,95.01 L407.31,103.81 L409.07,104.69 L409.07,103.81 L394.12,90.61 L393.24,90.61 L380.04,80.05 L371.24,74.78 L369.48,73.02 L369.48,71.26 L368.6,72.14 L366.85,72.14 L359.81,68.62 L358.05,66.86 L351.01,63.34 L349.25,63.34 L347.49,61.58 L341.33,59.82 L336.93,57.18 L332.54,56.3 L330.78,54.54 L328.14,54.54 L325.5,52.78 L322.86,52.78 L320.22,51.02 L310.54,49.26 L307.02,47.51 L303.51,47.51 L302.63,46.63 L299.99,46.63 L299.11,45.75 L294.71,45.75 L293.83,44.87 L291.19,44.87 L290.31,43.99 L277.99,43.11 L277.11,42.23 L260.4,42.23 L259.52,41.35 L256.88,41.35 L256,40.47 Z
    M255.12,35.19 L255.12,40.47 L254.24,41.35 L251.6,41.35 L250.72,42.23 L234.89,42.23 L234.01,43.11 L230.49,43.11 L229.61,43.99 L221.69,43.99 L220.81,44.87 L218.17,44.87 L217.29,45.75 L212.01,45.75 L208.49,47.51 L204.1,47.51 L200.58,49.26 L197.06,49.26 L194.42,51.02 L192.66,51.02 L189.14,52.78 L185.62,52.78 L178.58,56.3 L175.95,56.3 L174.19,58.06 L171.55,58.06 L160.99,63.34 L166.27,60.7 L168.91,60.7 L175.07,57.18 L187.38,53.66 L192.66,51.02 L198.82,50.14 L199.7,49.26 L204.98,48.38 L205.86,47.51 L215.53,46.63 L216.41,45.75 L219.05,45.75 L219.93,44.87 L233.13,43.99 L234.01,43.11 L252.48,43.11 L254.24,42.23 L255.12,43.11 L255.12,98.53 L251.6,100.29 L246.32,101.17 L241.04,105.57 L240.16,105.57 L235.77,112.6 L235.77,114.36 L234.89,115.24 L234.89,119.64 L234.01,120.52 L234.89,121.4 L233.13,124.92 L229.61,124.92 L228.73,125.8 L220.81,126.68 L219.93,127.56 L217.29,127.56 L213.77,129.32 L211.13,129.32 L210.25,130.2 L203.22,131.96 L192.66,137.24 L190.9,137.24 L183.86,141.64 L181.22,139 L179.46,134.6 L173.31,125.8 L168.03,115.24 L166.27,113.48 L165.39,110.85 L160.99,104.69 L158.35,98.53 L156.59,96.77 L150.43,85.33 L147.79,82.69 L147.79,80.93 L143.4,73.9 L145.15,72.14 L147.79,71.26 L149.55,69.5 L152.19,68.62 L153.95,66.86 L157.47,65.1 L147.79,69.5 L146.03,71.26 L141.64,73.02 L139.88,74.78 L131.08,80.05 L128.44,82.69 L124.92,84.45 L117.88,90.61 L117,90.61 L104.69,102.05 L102.93,102.93 L102.05,104.69 L102.93,104.69 L111.73,95.89 L112.6,95.89 L121.4,87.97 L122.28,87.97 L131.96,80.05 L134.6,79.18 L136.36,77.42 L142.52,73.9 L145.15,79.18 L148.67,83.57 L151.31,89.73 L153.07,91.49 L158.35,102.05 L161.87,106.45 L163.63,110.85 L165.39,112.6 L167.15,117 L168.91,118.76 L171.55,124.92 L175.07,129.32 L176.82,133.72 L178.58,135.48 L179.46,138.12 L182.1,141.64 L177.7,145.15 L175.07,146.03 L173.31,147.79 L169.79,149.55 L163.63,154.83 L162.75,154.83 L160.11,157.47 L160.11,158.35 L168.03,152.19 L182.1,143.4 L184.74,146.03 L185.62,148.67 L187.38,150.43 L186.5,152.19 L187.38,152.19 L189.14,153.95 L190.02,156.59 L191.78,158.35 L185.62,163.63 L183.86,163.63 L182.1,165.39 L178.58,167.15 L167.15,177.7 L166.27,177.7 L151.31,194.42 L146.03,203.22 L144.27,203.22 L142.52,201.46 L139.88,200.58 L138.12,198.82 L138.12,197.94 L137.24,198.82 L128.44,193.54 L131.08,188.26 L138.12,178.58 L137.24,177.7 L132.84,184.74 L130.2,187.38 L128.44,190.9 L126.68,192.66 L125.8,192.66 L121.4,189.14 L112.6,184.74 L109.97,182.1 L107.33,181.22 L101.17,176.82 L87.09,169.79 L78.3,163.63 L64.22,155.71 L68.62,147.79 L67.74,147.79 L66.86,150.43 L65.1,152.19 L63.34,155.71 L59.82,153.95 L58.06,152.19 L64.22,140.76 L65.98,139 L73.02,127.56 L75.66,124.92 L78.3,120.52 L82.69,116.12 L82.69,115.24 L87.09,110.85 L87.09,109.97 L112.6,85.33 L113.48,85.33 L117,81.81 L124.04,77.42 L126.68,74.78 L131.96,72.14 L134.6,69.5 L137.24,68.62 L141.64,65.1 L166.27,52.78 L168.03,52.78 L175.07,49.26 L176.82,49.26 L177.7,48.38 L179.46,48.38 L180.34,47.51 L182.1,47.51 L182.98,46.63 L184.74,46.63 L185.62,45.75 L187.38,45.75 L193.54,43.11 L196.18,43.11 L197.06,42.23 L199.7,42.23 L200.58,41.35 L203.22,41.35 L204.1,40.47 L207.62,40.47 L208.49,39.59 L211.13,39.59 L212.01,38.71 L216.41,38.71 L217.29,37.83 L221.69,37.83 L222.57,36.95 L227.85,36.95 L228.73,36.07 L234.89,36.07 L235.77,35.19 L252.48,35.19 L253.36,34.31 Z
    M179.46,34.31 L180.34,35.19 L175.95,37.83 L174.19,37.83 L149.55,51.02 L147.79,52.78 L139,58.06 L136.36,60.7 L132.84,62.46 L123.16,70.38 L122.28,70.38 L112.6,79.18 L111.73,79.18 L80.93,109.97 L80.93,110.85 L73.9,117.88 L73.9,118.76 L70.38,122.28 L70.38,123.16 L65.98,127.56 L65.98,128.44 L58.94,137.24 L55.42,143.4 L51.02,146.91 L51.9,148.67 L47.51,154.83 L45.75,159.23 L43.99,160.99 L38.71,171.55 L38.71,173.31 L34.31,181.22 L34.31,182.98 L32.55,185.62 L31.67,184.74 L31.67,182.1 L32.55,181.22 L33.43,176.82 L35.19,174.19 L35.19,172.43 L36.95,169.79 L38.71,163.63 L51.02,139 L52.78,137.24 L53.66,134.6 L55.42,132.84 L60.7,124.04 L63.34,121.4 L65.1,117.88 L67.74,115.24 L70.38,110.85 L74.78,106.45 L74.78,105.57 L80.05,100.29 L80.05,99.41 L103.81,76.54 L104.69,76.54 L109.09,72.14 L109.97,72.14 L119.64,64.22 L120.52,64.22 L132.84,55.42 L137.24,53.66 L139,51.9 L143.4,50.14 L145.15,48.38 L148.67,46.63 L150.43,46.63 L153.95,43.99 L155.71,43.99 L161.87,40.47 L168.03,38.71 L172.43,36.07 Z
    M256,24.63 L256.88,23.75 L267.44,23.75 L268.32,24.63 L277.11,24.63 L277.99,25.51 L283.27,25.51 L284.15,26.39 L288.55,26.39 L289.43,27.27 L292.95,27.27 L293.83,28.15 L303.51,29.91 L307.02,31.67 L309.66,31.67 L310.54,32.55 L320.22,35.19 L322.86,36.95 L324.62,36.95 L331.66,40.47 L333.42,40.47 L352.77,50.14 L354.53,51.9 L357.17,52.78 L361.57,56.3 L364.21,57.18 L365.97,58.94 L374.76,64.22 L385.32,73.02 L383.56,73.9 L372.12,65.98 L350.13,54.54 L348.37,54.54 L342.21,51.02 L340.45,51.02 L333.42,47.51 L331.66,47.51 L330.78,46.63 L329.02,46.63 L328.14,45.75 L326.38,45.75 L320.22,43.11 L317.58,43.11 L314.06,41.35 L311.42,41.35 L310.54,40.47 L307.9,40.47 L307.02,39.59 L303.51,39.59 L302.63,38.71 L299.99,38.71 L299.11,37.83 L294.71,37.83 L293.83,36.95 L289.43,36.95 L288.55,36.07 L283.27,36.07 L282.39,35.19 L274.47,35.19 L273.59,34.31 L256.88,34.31 L256,33.43 Z
    M255.12,24.63 L255.12,33.43 L254.24,34.31 L239.29,34.31 L238.41,35.19 L229.61,35.19 L228.73,36.07 L222.57,36.07 L221.69,36.95 L216.41,36.95 L215.53,37.83 L212.89,37.83 L212.01,38.71 L208.49,38.71 L207.62,39.59 L204.98,39.59 L204.1,40.47 L201.46,40.47 L200.58,41.35 L190.9,43.11 L190.02,43.99 L177.7,47.51 L175.07,49.26 L170.67,50.14 L166.27,52.78 L164.51,52.78 L140.76,65.1 L124.04,76.54 L122.28,75.66 L132.84,66.86 L133.72,66.86 L139,62.46 L139.88,62.46 L146.91,57.18 L149.55,56.3 L153.95,52.78 L160.11,50.14 L161.87,48.38 L177.7,40.47 L179.46,40.47 L186.5,36.95 L190.9,36.07 L193.54,34.31 L195.3,34.31 L201.46,31.67 L204.1,31.67 L207.62,29.91 L210.25,29.91 L211.13,29.03 L212.89,29.03 L213.77,28.15 L217.29,28.15 L218.17,27.27 L221.69,27.27 L222.57,26.39 L234.01,25.51 L234.89,24.63 L241.92,24.63 L242.8,23.75 L254.24,23.75 Z
    M245.44,18.47 L244.56,19.35 L226.97,20.23 L226.09,21.11 L220.81,21.11 L219.93,21.99 L215.53,21.99 L214.65,22.87 L205.86,23.75 L204.98,24.63 L202.34,24.63 L201.46,25.51 L198.82,25.51 L197.94,26.39 L188.26,28.15 L187.38,29.03 L185.62,29.03 L184.74,29.91 L182.98,29.91 L182.1,30.79 L169.79,34.31 L160.99,38.71 L159.23,38.71 L136.36,50.14 L134.6,51.9 L131.96,52.78 L130.2,54.54 L116.12,63.34 L105.57,72.14 L104.69,72.14 L100.29,76.54 L99.41,76.54 L83.57,91.49 L83.57,92.37 L75.66,100.29 L75.66,101.17 L66.86,110.85 L66.86,111.73 L61.58,117.88 L61.58,118.76 L52.78,131.08 L47.51,141.64 L43.99,146.03 L42.23,149.55 L42.23,151.31 L40.47,153.07 L40.47,154.83 L36.95,160.99 L36.95,162.75 L33.43,169.79 L32.55,174.19 L30.79,176.82 L30.79,178.58 L29.91,179.46 L29.91,181.22 L27.27,187.38 L27.27,190.02 L25.51,193.54 L25.51,196.18 L24.63,197.06 L24.63,199.7 L23.75,200.58 L23.75,203.22 L22.87,204.1 L22.87,206.74 L21.99,207.62 L21.99,211.13 L21.11,212.01 L21.11,216.41 L20.23,217.29 L20.23,222.57 L19.35,223.45 L19.35,231.37 L18.47,232.25 L18.47,242.8 L17.59,243.68 L17.59,269.2 L18.47,270.08 L18.47,280.63 L19.35,281.51 L19.35,288.55 L20.23,289.43 L21.11,299.11 L21.99,299.99 L21.99,303.51 L22.87,304.38 L22.87,307.9 L23.75,308.78 L25.51,318.46 L26.39,319.34 L26.39,321.1 L27.27,321.98 L27.27,323.74 L28.15,324.62 L28.15,326.38 L29.03,327.26 L29.03,329.02 L29.91,329.9 L33.43,342.21 L35.19,344.85 L36.95,351.01 L43.11,362.45 L43.11,364.21 L44.87,365.97 L47.51,372.12 L51.9,378.28 L53.66,382.68 L55.42,384.44 L58.06,389.72 L62.46,395 L62.46,395.88 L69.5,403.79 L69.5,404.67 L75.66,411.71 L75.66,412.59 L96.77,433.7 L97.65,433.7 L102.93,438.98 L103.81,438.98 L116.12,449.54 L117,449.54 L126.68,456.58 L129.32,457.46 L133.72,460.98 L147.79,468.01 L149.55,469.77 L151.31,469.77 L157.47,473.29 L159.23,473.29 L163.63,475.93 L165.39,475.93 L172.43,479.45 L174.19,479.45 L175.07,480.33 L176.82,480.33 L177.7,481.21 L179.46,481.21 L180.34,482.09 L182.1,482.09 L188.26,484.73 L190.9,484.73 L194.42,486.49 L201.46,487.37 L202.34,488.25 L204.98,488.25 L205.86,489.13 L208.49,489.13 L209.37,490.01 L212.89,490.01 L213.77,490.89 L219.93,490.89 L220.81,491.77 L234.01,492.65 L234.89,493.53 L243.68,493.53 L244.56,494.41 L268.32,494.41 L269.2,493.53 L278.87,493.53 L279.75,492.65 L292.07,491.77 L292.95,490.89 L297.35,490.89 L298.23,490.01 L301.75,490.01 L302.63,489.13 L306.14,489.13 L307.02,488.25 L309.66,488.25 L310.54,487.37 L317.58,486.49 L321.1,484.73 L323.74,484.73 L324.62,483.85 L326.38,483.85 L327.26,482.97 L339.57,479.45 L343.97,476.81 L350.13,475.05 L358.05,470.65 L359.81,470.65 L368.6,466.25 L370.36,464.49 L374.76,462.74 L376.52,460.98 L379.16,460.1 L383.56,456.58 L386.2,455.7 L387.96,453.94 L391.48,452.18 L400.27,445.14 L401.15,445.14 L416.99,431.07 L417.87,431.07 L436.34,411.71 L436.34,410.83 L439.86,407.31 L439.86,406.43 L443.38,402.91 L443.38,402.03 L451.3,392.36 L451.3,391.48 L454.82,387.08 L455.7,384.44 L459.22,380.04 L460.1,377.4 L461.86,375.64 L471.53,357.17 L471.53,355.41 L475.05,349.25 L475.93,344.85 L479.45,337.81 L479.45,336.05 L480.33,335.18 L480.33,333.42 L481.21,332.54 L481.21,330.78 L483.85,324.62 L483.85,321.98 L486.49,315.82 L487.37,308.78 L488.25,307.9 L489.13,300.87 L490.01,299.99 L490.01,295.59 L490.89,294.71 L491.77,281.51 L492.65,280.63 L492.65,270.96 L493.53,270.08 L493.53,242.8 L492.65,241.92 L491.77,222.57 L490.89,221.69 L490.89,217.29 L490.01,216.41 L489.13,207.62 L488.25,206.74 L488.25,204.1 L487.37,203.22 L485.61,193.54 L483.85,190.02 L483.85,187.38 L481.21,181.22 L481.21,178.58 L479.45,175.95 L479.45,174.19 L478.57,173.31 L477.69,168.91 L475.05,164.51 L475.05,162.75 L466.25,146.03 L466.25,144.27 L464.49,142.52 L462.74,138.12 L460.98,136.36 L457.46,129.32 L453.06,124.04 L449.54,117.88 L446.9,115.24 L446.9,114.36 L444.26,111.73 L444.26,110.85 L441.62,108.21 L438.98,103.81 L437.22,102.93 L437.22,102.05 L431.07,95.89 L431.07,95.01 L417.87,81.81 L416.99,81.81 L410.83,75.66 L409.95,75.66 L397.64,65.1 L396.76,65.1 L379.16,52.78 L366.85,46.63 L365.09,44.87 L361.57,43.11 L359.81,43.11 L350.13,37.83 L348.37,37.83 L341.33,34.31 L339.57,34.31 L338.69,33.43 L336.93,33.43 L336.05,32.55 L334.3,32.55 L333.42,31.67 L331.66,31.67 L325.5,29.03 L322.86,29.03 L316.7,26.39 L314.06,26.39 L313.18,25.51 L310.54,25.51 L309.66,24.63 L307.02,24.63 L306.14,23.75 L302.63,23.75 L301.75,22.87 L297.35,22.87 L296.47,21.99 L286.79,21.11 L285.91,20.23 L278.87,20.23 L277.99,19.35 L264.8,19.35 L263.92,18.47 Z
  " fill="#FFFFFF" fill-rule="evenodd" clip-rule="evenodd"/>
</svg>
